G04 #@! TF.GenerationSoftware,KiCad,Pcbnew,(5.1.4)-1*
G04 #@! TF.CreationDate,2021-02-09T18:46:42+01:00*
G04 #@! TF.ProjectId,plant_water_level,706c616e-745f-4776-9174-65725f6c6576,rev?*
G04 #@! TF.SameCoordinates,Original*
G04 #@! TF.FileFunction,Soldermask,Top*
G04 #@! TF.FilePolarity,Negative*
%FSLAX46Y46*%
G04 Gerber Fmt 4.6, Leading zero omitted, Abs format (unit mm)*
G04 Created by KiCad (PCBNEW (5.1.4)-1) date 2021-02-09 18:46:42*
%MOMM*%
%LPD*%
G04 APERTURE LIST*
%ADD10C,0.100000*%
G04 APERTURE END LIST*
D10*
G36*
X84029500Y489000D02*
G01*
X79927500Y489000D01*
X79927500Y4591000D01*
X84029500Y4591000D01*
X84029500Y489000D01*
X84029500Y489000D01*
G37*
G36*
X41484500Y489000D02*
G01*
X37382500Y489000D01*
X37382500Y4591000D01*
X41484500Y4591000D01*
X41484500Y489000D01*
X41484500Y489000D01*
G37*
G36*
X51991528Y2290482D02*
G01*
X52151947Y2241819D01*
X52284611Y2170909D01*
X52299783Y2162799D01*
X52429364Y2056454D01*
X52535709Y1926873D01*
X52535710Y1926871D01*
X52614729Y1779037D01*
X52663392Y1618618D01*
X52679822Y1451795D01*
X52663392Y1284972D01*
X52614729Y1124553D01*
X52543819Y991889D01*
X52535709Y976717D01*
X52429364Y847136D01*
X52299783Y740791D01*
X52299781Y740790D01*
X52151947Y661771D01*
X51991528Y613108D01*
X51866509Y600795D01*
X51782901Y600795D01*
X51657882Y613108D01*
X51497463Y661771D01*
X51349629Y740790D01*
X51349627Y740791D01*
X51220046Y847136D01*
X51113701Y976717D01*
X51105591Y991889D01*
X51034681Y1124553D01*
X50986018Y1284972D01*
X50969588Y1451795D01*
X50986018Y1618618D01*
X51034681Y1779037D01*
X51113700Y1926871D01*
X51113701Y1926873D01*
X51220046Y2056454D01*
X51349627Y2162799D01*
X51364799Y2170909D01*
X51497463Y2241819D01*
X51657882Y2290482D01*
X51782901Y2302795D01*
X51866509Y2302795D01*
X51991528Y2290482D01*
X51991528Y2290482D01*
G37*
G36*
X9446528Y2290482D02*
G01*
X9606947Y2241819D01*
X9739611Y2170909D01*
X9754783Y2162799D01*
X9884364Y2056454D01*
X9990709Y1926873D01*
X9990710Y1926871D01*
X10069729Y1779037D01*
X10118392Y1618618D01*
X10134822Y1451795D01*
X10118392Y1284972D01*
X10069729Y1124553D01*
X9998819Y991889D01*
X9990709Y976717D01*
X9884364Y847136D01*
X9754783Y740791D01*
X9754781Y740790D01*
X9606947Y661771D01*
X9446528Y613108D01*
X9321509Y600795D01*
X9237901Y600795D01*
X9112882Y613108D01*
X8952463Y661771D01*
X8804629Y740790D01*
X8804627Y740791D01*
X8675046Y847136D01*
X8568701Y976717D01*
X8560591Y991889D01*
X8489681Y1124553D01*
X8441018Y1284972D01*
X8424588Y1451795D01*
X8441018Y1618618D01*
X8489681Y1779037D01*
X8568700Y1926871D01*
X8568701Y1926873D01*
X8675046Y2056454D01*
X8804627Y2162799D01*
X8819799Y2170909D01*
X8952463Y2241819D01*
X9112882Y2290482D01*
X9237901Y2302795D01*
X9321509Y2302795D01*
X9446528Y2290482D01*
X9446528Y2290482D01*
G37*
G36*
X41484500Y5569000D02*
G01*
X37382500Y5569000D01*
X37382500Y9671000D01*
X41484500Y9671000D01*
X41484500Y5569000D01*
X41484500Y5569000D01*
G37*
G36*
X84029500Y5569000D02*
G01*
X79927500Y5569000D01*
X79927500Y9671000D01*
X84029500Y9671000D01*
X84029500Y5569000D01*
X84029500Y5569000D01*
G37*
G36*
X2343728Y9454297D02*
G01*
X2498600Y9390147D01*
X2637981Y9297015D01*
X2756515Y9178481D01*
X2849647Y9039100D01*
X2913797Y8884228D01*
X2946500Y8719816D01*
X2946500Y8552184D01*
X2913797Y8387772D01*
X2849647Y8232900D01*
X2756515Y8093519D01*
X2637981Y7974985D01*
X2498600Y7881853D01*
X2343728Y7817703D01*
X2179316Y7785000D01*
X2011684Y7785000D01*
X1847272Y7817703D01*
X1692400Y7881853D01*
X1553019Y7974985D01*
X1434485Y8093519D01*
X1341353Y8232900D01*
X1277203Y8387772D01*
X1244500Y8552184D01*
X1244500Y8719816D01*
X1277203Y8884228D01*
X1341353Y9039100D01*
X1434485Y9178481D01*
X1553019Y9297015D01*
X1692400Y9390147D01*
X1847272Y9454297D01*
X2011684Y9487000D01*
X2179316Y9487000D01*
X2343728Y9454297D01*
X2343728Y9454297D01*
G37*
G36*
X44888728Y9454297D02*
G01*
X45043600Y9390147D01*
X45182981Y9297015D01*
X45301515Y9178481D01*
X45394647Y9039100D01*
X45458797Y8884228D01*
X45491500Y8719816D01*
X45491500Y8552184D01*
X45458797Y8387772D01*
X45394647Y8232900D01*
X45301515Y8093519D01*
X45182981Y7974985D01*
X45043600Y7881853D01*
X44888728Y7817703D01*
X44724316Y7785000D01*
X44556684Y7785000D01*
X44392272Y7817703D01*
X44237400Y7881853D01*
X44098019Y7974985D01*
X43979485Y8093519D01*
X43886353Y8232900D01*
X43822203Y8387772D01*
X43789500Y8552184D01*
X43789500Y8719816D01*
X43822203Y8884228D01*
X43886353Y9039100D01*
X43979485Y9178481D01*
X44098019Y9297015D01*
X44237400Y9390147D01*
X44392272Y9454297D01*
X44556684Y9487000D01*
X44724316Y9487000D01*
X44888728Y9454297D01*
X44888728Y9454297D01*
G37*
G36*
X35142500Y10387000D02*
G01*
X32040500Y10387000D01*
X32040500Y13489000D01*
X35142500Y13489000D01*
X35142500Y10387000D01*
X35142500Y10387000D01*
G37*
G36*
X77687500Y10387000D02*
G01*
X74585500Y10387000D01*
X74585500Y13489000D01*
X77687500Y13489000D01*
X77687500Y10387000D01*
X77687500Y10387000D01*
G37*
G36*
X55949085Y13459198D02*
G01*
X56098910Y13429396D01*
X56381174Y13312479D01*
X56635205Y13142741D01*
X56851241Y12926705D01*
X57020979Y12672674D01*
X57137896Y12390410D01*
X57197500Y12090760D01*
X57197500Y11785240D01*
X57137896Y11485590D01*
X57020979Y11203326D01*
X56851241Y10949295D01*
X56635205Y10733259D01*
X56381174Y10563521D01*
X56098910Y10446604D01*
X55949085Y10416802D01*
X55799261Y10387000D01*
X55493739Y10387000D01*
X55343915Y10416802D01*
X55194090Y10446604D01*
X54911826Y10563521D01*
X54657795Y10733259D01*
X54441759Y10949295D01*
X54272021Y11203326D01*
X54155104Y11485590D01*
X54095500Y11785240D01*
X54095500Y12090760D01*
X54155104Y12390410D01*
X54272021Y12672674D01*
X54441759Y12926705D01*
X54657795Y13142741D01*
X54911826Y13312479D01*
X55194090Y13429396D01*
X55343915Y13459198D01*
X55493739Y13489000D01*
X55799261Y13489000D01*
X55949085Y13459198D01*
X55949085Y13459198D01*
G37*
G36*
X13404085Y13459198D02*
G01*
X13553910Y13429396D01*
X13836174Y13312479D01*
X14090205Y13142741D01*
X14306241Y12926705D01*
X14475979Y12672674D01*
X14592896Y12390410D01*
X14652500Y12090760D01*
X14652500Y11785240D01*
X14592896Y11485590D01*
X14475979Y11203326D01*
X14306241Y10949295D01*
X14090205Y10733259D01*
X13836174Y10563521D01*
X13553910Y10446604D01*
X13404085Y10416802D01*
X13254261Y10387000D01*
X12948739Y10387000D01*
X12798915Y10416802D01*
X12649090Y10446604D01*
X12366826Y10563521D01*
X12112795Y10733259D01*
X11896759Y10949295D01*
X11727021Y11203326D01*
X11610104Y11485590D01*
X11550500Y11785240D01*
X11550500Y12090760D01*
X11610104Y12390410D01*
X11727021Y12672674D01*
X11896759Y12926705D01*
X12112795Y13142741D01*
X12366826Y13312479D01*
X12649090Y13429396D01*
X12798915Y13459198D01*
X12948739Y13489000D01*
X13254261Y13489000D01*
X13404085Y13459198D01*
X13404085Y13459198D01*
G37*
G36*
X46734500Y11049000D02*
G01*
X44832500Y11049000D01*
X44832500Y12951000D01*
X46734500Y12951000D01*
X46734500Y11049000D01*
X46734500Y11049000D01*
G37*
G36*
X4189500Y11049000D02*
G01*
X2287500Y11049000D01*
X2287500Y12951000D01*
X4189500Y12951000D01*
X4189500Y11049000D01*
X4189500Y11049000D01*
G37*
G36*
X3515895Y15454454D02*
G01*
X3688966Y15382766D01*
X3688967Y15382765D01*
X3844727Y15278690D01*
X3977190Y15146227D01*
X3977191Y15146225D01*
X4081266Y14990466D01*
X4152954Y14817395D01*
X4189500Y14633667D01*
X4189500Y14446333D01*
X4152954Y14262605D01*
X4081266Y14089534D01*
X4081265Y14089533D01*
X3977190Y13933773D01*
X3844727Y13801310D01*
X3766318Y13748919D01*
X3688966Y13697234D01*
X3515895Y13625546D01*
X3332167Y13589000D01*
X3144833Y13589000D01*
X2961105Y13625546D01*
X2788034Y13697234D01*
X2710682Y13748919D01*
X2632273Y13801310D01*
X2499810Y13933773D01*
X2395735Y14089533D01*
X2395734Y14089534D01*
X2324046Y14262605D01*
X2287500Y14446333D01*
X2287500Y14633667D01*
X2324046Y14817395D01*
X2395734Y14990466D01*
X2499809Y15146225D01*
X2499810Y15146227D01*
X2632273Y15278690D01*
X2788033Y15382765D01*
X2788034Y15382766D01*
X2961105Y15454454D01*
X3144833Y15491000D01*
X3332167Y15491000D01*
X3515895Y15454454D01*
X3515895Y15454454D01*
G37*
G36*
X46060895Y15454454D02*
G01*
X46233966Y15382766D01*
X46233967Y15382765D01*
X46389727Y15278690D01*
X46522190Y15146227D01*
X46522191Y15146225D01*
X46626266Y14990466D01*
X46697954Y14817395D01*
X46734500Y14633667D01*
X46734500Y14446333D01*
X46697954Y14262605D01*
X46626266Y14089534D01*
X46626265Y14089533D01*
X46522190Y13933773D01*
X46389727Y13801310D01*
X46311318Y13748919D01*
X46233966Y13697234D01*
X46060895Y13625546D01*
X45877167Y13589000D01*
X45689833Y13589000D01*
X45506105Y13625546D01*
X45333034Y13697234D01*
X45255682Y13748919D01*
X45177273Y13801310D01*
X45044810Y13933773D01*
X44940735Y14089533D01*
X44940734Y14089534D01*
X44869046Y14262605D01*
X44832500Y14446333D01*
X44832500Y14633667D01*
X44869046Y14817395D01*
X44940734Y14990466D01*
X45044809Y15146225D01*
X45044810Y15146227D01*
X45177273Y15278690D01*
X45333033Y15382765D01*
X45333034Y15382766D01*
X45506105Y15454454D01*
X45689833Y15491000D01*
X45877167Y15491000D01*
X46060895Y15454454D01*
X46060895Y15454454D01*
G37*
G36*
X41484500Y14332000D02*
G01*
X37382500Y14332000D01*
X37382500Y18434000D01*
X41484500Y18434000D01*
X41484500Y14332000D01*
X41484500Y14332000D01*
G37*
G36*
X84029500Y14332000D02*
G01*
X79927500Y14332000D01*
X79927500Y18434000D01*
X84029500Y18434000D01*
X84029500Y14332000D01*
X84029500Y14332000D01*
G37*
G36*
X32751916Y19334666D02*
G01*
X32860492Y19301729D01*
X32860495Y19301728D01*
X32896601Y19282429D01*
X32960557Y19248244D01*
X33048264Y19176264D01*
X33111383Y19099354D01*
X33128702Y19082035D01*
X33149077Y19068421D01*
X33171716Y19059043D01*
X33195749Y19054263D01*
X33220253Y19054263D01*
X33244286Y19059043D01*
X33266925Y19068421D01*
X33287299Y19082034D01*
X33304626Y19099361D01*
X33318240Y19119736D01*
X33327618Y19142375D01*
X33332398Y19166408D01*
X33333000Y19178660D01*
X33333000Y19343000D01*
X34485000Y19343000D01*
X34485000Y17741000D01*
X33333000Y17741000D01*
X33333000Y17905340D01*
X33330598Y17929726D01*
X33323485Y17953175D01*
X33311934Y17974786D01*
X33296389Y17993728D01*
X33277447Y18009273D01*
X33255836Y18020824D01*
X33232387Y18027937D01*
X33208001Y18030339D01*
X33183615Y18027937D01*
X33160166Y18020824D01*
X33138555Y18009273D01*
X33111381Y17984644D01*
X33048264Y17907736D01*
X32960556Y17835756D01*
X32896600Y17801571D01*
X32860494Y17782272D01*
X32860491Y17782271D01*
X32751915Y17749334D01*
X32639000Y17738213D01*
X32526084Y17749334D01*
X32417508Y17782271D01*
X32417505Y17782272D01*
X32381399Y17801571D01*
X32317443Y17835756D01*
X32229736Y17907736D01*
X32157756Y17995444D01*
X32114239Y18076860D01*
X32100625Y18097234D01*
X32083298Y18114561D01*
X32062924Y18128175D01*
X32040285Y18137552D01*
X32016251Y18142332D01*
X31991747Y18142332D01*
X31967714Y18137551D01*
X31945075Y18128174D01*
X31924701Y18114560D01*
X31907374Y18097233D01*
X31893762Y18076860D01*
X31850244Y17995443D01*
X31778264Y17907736D01*
X31690556Y17835756D01*
X31626600Y17801571D01*
X31590494Y17782272D01*
X31590491Y17782271D01*
X31481915Y17749334D01*
X31369000Y17738213D01*
X31256084Y17749334D01*
X31147508Y17782271D01*
X31147505Y17782272D01*
X31111399Y17801571D01*
X31047443Y17835756D01*
X30959736Y17907736D01*
X30887756Y17995444D01*
X30844239Y18076860D01*
X30834272Y18095506D01*
X30828492Y18114560D01*
X30801334Y18204085D01*
X30793000Y18288703D01*
X30793000Y18795298D01*
X30801334Y18879916D01*
X30834271Y18988492D01*
X30834272Y18988495D01*
X30887756Y19088555D01*
X30887757Y19088557D01*
X30959737Y19176264D01*
X31047444Y19248244D01*
X31111400Y19282429D01*
X31147506Y19301728D01*
X31147509Y19301729D01*
X31256085Y19334666D01*
X31369000Y19345787D01*
X31481916Y19334666D01*
X31590492Y19301729D01*
X31590495Y19301728D01*
X31626601Y19282429D01*
X31690557Y19248244D01*
X31778264Y19176264D01*
X31850244Y19088557D01*
X31866019Y19059043D01*
X31893761Y19007141D01*
X31907375Y18986766D01*
X31924702Y18969439D01*
X31945076Y18955826D01*
X31967715Y18946448D01*
X31991748Y18941668D01*
X32016252Y18941668D01*
X32040285Y18946448D01*
X32062924Y18955826D01*
X32083299Y18969440D01*
X32100626Y18986767D01*
X32114239Y19007141D01*
X32157756Y19088555D01*
X32157757Y19088557D01*
X32229737Y19176264D01*
X32317444Y19248244D01*
X32381400Y19282429D01*
X32417506Y19301728D01*
X32417509Y19301729D01*
X32526085Y19334666D01*
X32639000Y19345787D01*
X32751916Y19334666D01*
X32751916Y19334666D01*
G37*
G36*
X75296916Y19334666D02*
G01*
X75405492Y19301729D01*
X75405495Y19301728D01*
X75441601Y19282429D01*
X75505557Y19248244D01*
X75593264Y19176264D01*
X75656383Y19099354D01*
X75673702Y19082035D01*
X75694077Y19068421D01*
X75716716Y19059043D01*
X75740749Y19054263D01*
X75765253Y19054263D01*
X75789286Y19059043D01*
X75811925Y19068421D01*
X75832299Y19082034D01*
X75849626Y19099361D01*
X75863240Y19119736D01*
X75872618Y19142375D01*
X75877398Y19166408D01*
X75878000Y19178660D01*
X75878000Y19343000D01*
X77030000Y19343000D01*
X77030000Y17741000D01*
X75878000Y17741000D01*
X75878000Y17905340D01*
X75875598Y17929726D01*
X75868485Y17953175D01*
X75856934Y17974786D01*
X75841389Y17993728D01*
X75822447Y18009273D01*
X75800836Y18020824D01*
X75777387Y18027937D01*
X75753001Y18030339D01*
X75728615Y18027937D01*
X75705166Y18020824D01*
X75683555Y18009273D01*
X75656381Y17984644D01*
X75593264Y17907736D01*
X75505556Y17835756D01*
X75441600Y17801571D01*
X75405494Y17782272D01*
X75405491Y17782271D01*
X75296915Y17749334D01*
X75184000Y17738213D01*
X75071084Y17749334D01*
X74962508Y17782271D01*
X74962505Y17782272D01*
X74926399Y17801571D01*
X74862443Y17835756D01*
X74774736Y17907736D01*
X74702756Y17995444D01*
X74659239Y18076860D01*
X74645625Y18097234D01*
X74628298Y18114561D01*
X74607924Y18128175D01*
X74585285Y18137552D01*
X74561251Y18142332D01*
X74536747Y18142332D01*
X74512714Y18137551D01*
X74490075Y18128174D01*
X74469701Y18114560D01*
X74452374Y18097233D01*
X74438762Y18076860D01*
X74395244Y17995443D01*
X74323264Y17907736D01*
X74235556Y17835756D01*
X74171600Y17801571D01*
X74135494Y17782272D01*
X74135491Y17782271D01*
X74026915Y17749334D01*
X73914000Y17738213D01*
X73801084Y17749334D01*
X73692508Y17782271D01*
X73692505Y17782272D01*
X73656399Y17801571D01*
X73592443Y17835756D01*
X73504736Y17907736D01*
X73432756Y17995444D01*
X73389239Y18076860D01*
X73379272Y18095506D01*
X73373492Y18114560D01*
X73346334Y18204085D01*
X73338000Y18288703D01*
X73338000Y18795298D01*
X73346334Y18879916D01*
X73379271Y18988492D01*
X73379272Y18988495D01*
X73432756Y19088555D01*
X73432757Y19088557D01*
X73504737Y19176264D01*
X73592444Y19248244D01*
X73656400Y19282429D01*
X73692506Y19301728D01*
X73692509Y19301729D01*
X73801085Y19334666D01*
X73914000Y19345787D01*
X74026916Y19334666D01*
X74135492Y19301729D01*
X74135495Y19301728D01*
X74171601Y19282429D01*
X74235557Y19248244D01*
X74323264Y19176264D01*
X74395244Y19088557D01*
X74411019Y19059043D01*
X74438761Y19007141D01*
X74452375Y18986766D01*
X74469702Y18969439D01*
X74490076Y18955826D01*
X74512715Y18946448D01*
X74536748Y18941668D01*
X74561252Y18941668D01*
X74585285Y18946448D01*
X74607924Y18955826D01*
X74628299Y18969440D01*
X74645626Y18986767D01*
X74659239Y19007141D01*
X74702756Y19088555D01*
X74702757Y19088557D01*
X74774737Y19176264D01*
X74862444Y19248244D01*
X74926400Y19282429D01*
X74962506Y19301728D01*
X74962509Y19301729D01*
X75071085Y19334666D01*
X75184000Y19345787D01*
X75296916Y19334666D01*
X75296916Y19334666D01*
G37*
G36*
X84029500Y19412000D02*
G01*
X79927500Y19412000D01*
X79927500Y23514000D01*
X84029500Y23514000D01*
X84029500Y19412000D01*
X84029500Y19412000D01*
G37*
G36*
X41484500Y19412000D02*
G01*
X37382500Y19412000D01*
X37382500Y23514000D01*
X41484500Y23514000D01*
X41484500Y19412000D01*
X41484500Y19412000D01*
G37*
G36*
X49641000Y19613000D02*
G01*
X48839000Y19613000D01*
X48839000Y21215000D01*
X49641000Y21215000D01*
X49641000Y19613000D01*
X49641000Y19613000D01*
G37*
G36*
X46641000Y19613000D02*
G01*
X45839000Y19613000D01*
X45839000Y21215000D01*
X46641000Y21215000D01*
X46641000Y19613000D01*
X46641000Y19613000D01*
G37*
G36*
X45141000Y19613000D02*
G01*
X44339000Y19613000D01*
X44339000Y21215000D01*
X45141000Y21215000D01*
X45141000Y19613000D01*
X45141000Y19613000D01*
G37*
G36*
X2596000Y19613000D02*
G01*
X1794000Y19613000D01*
X1794000Y21215000D01*
X2596000Y21215000D01*
X2596000Y19613000D01*
X2596000Y19613000D01*
G37*
G36*
X4096000Y19613000D02*
G01*
X3294000Y19613000D01*
X3294000Y21215000D01*
X4096000Y21215000D01*
X4096000Y19613000D01*
X4096000Y19613000D01*
G37*
G36*
X7096000Y19613000D02*
G01*
X6294000Y19613000D01*
X6294000Y21215000D01*
X7096000Y21215000D01*
X7096000Y19613000D01*
X7096000Y19613000D01*
G37*
G36*
X43891000Y20613000D02*
G01*
X42789000Y20613000D01*
X42789000Y21515000D01*
X43891000Y21515000D01*
X43891000Y20613000D01*
X43891000Y20613000D01*
G37*
G36*
X1346000Y20613000D02*
G01*
X244000Y20613000D01*
X244000Y21515000D01*
X1346000Y21515000D01*
X1346000Y20613000D01*
X1346000Y20613000D01*
G37*
G36*
X51191000Y20613000D02*
G01*
X50089000Y20613000D01*
X50089000Y21515000D01*
X51191000Y21515000D01*
X51191000Y20613000D01*
X51191000Y20613000D01*
G37*
G36*
X8646000Y20613000D02*
G01*
X7544000Y20613000D01*
X7544000Y21515000D01*
X8646000Y21515000D01*
X8646000Y20613000D01*
X8646000Y20613000D01*
G37*
G36*
X48587740Y22665374D02*
G01*
X48636136Y22655747D01*
X48673902Y22640104D01*
X48727311Y22617981D01*
X48727312Y22617980D01*
X48809369Y22563152D01*
X48879152Y22493369D01*
X48879153Y22493367D01*
X48933981Y22411311D01*
X48971747Y22320135D01*
X48991000Y22223345D01*
X48991000Y22124655D01*
X48971747Y22027865D01*
X48933981Y21936689D01*
X48933980Y21936688D01*
X48879152Y21854631D01*
X48809369Y21784848D01*
X48768062Y21757248D01*
X48727311Y21730019D01*
X48673902Y21707896D01*
X48636136Y21692253D01*
X48587740Y21682627D01*
X48539345Y21673000D01*
X48440655Y21673000D01*
X48392260Y21682627D01*
X48343864Y21692253D01*
X48306098Y21707896D01*
X48252689Y21730019D01*
X48211938Y21757248D01*
X48170631Y21784848D01*
X48100848Y21854631D01*
X48046020Y21936688D01*
X48046019Y21936689D01*
X48008253Y22027865D01*
X47989000Y22124655D01*
X47989000Y22223345D01*
X48008253Y22320135D01*
X48046019Y22411311D01*
X48100847Y22493367D01*
X48100848Y22493369D01*
X48170631Y22563152D01*
X48252688Y22617980D01*
X48252689Y22617981D01*
X48306098Y22640104D01*
X48343864Y22655747D01*
X48392260Y22665374D01*
X48440655Y22675000D01*
X48539345Y22675000D01*
X48587740Y22665374D01*
X48587740Y22665374D01*
G37*
G36*
X6042740Y22665374D02*
G01*
X6091136Y22655747D01*
X6128902Y22640104D01*
X6182311Y22617981D01*
X6182312Y22617980D01*
X6264369Y22563152D01*
X6334152Y22493369D01*
X6334153Y22493367D01*
X6388981Y22411311D01*
X6426747Y22320135D01*
X6446000Y22223345D01*
X6446000Y22124655D01*
X6426747Y22027865D01*
X6388981Y21936689D01*
X6388980Y21936688D01*
X6334152Y21854631D01*
X6264369Y21784848D01*
X6223062Y21757248D01*
X6182311Y21730019D01*
X6128902Y21707896D01*
X6091136Y21692253D01*
X6042740Y21682627D01*
X5994345Y21673000D01*
X5895655Y21673000D01*
X5847260Y21682627D01*
X5798864Y21692253D01*
X5761098Y21707896D01*
X5707689Y21730019D01*
X5666938Y21757248D01*
X5625631Y21784848D01*
X5555848Y21854631D01*
X5501020Y21936688D01*
X5501019Y21936689D01*
X5463253Y22027865D01*
X5444000Y22124655D01*
X5444000Y22223345D01*
X5463253Y22320135D01*
X5501019Y22411311D01*
X5555847Y22493367D01*
X5555848Y22493369D01*
X5625631Y22563152D01*
X5707688Y22617980D01*
X5707689Y22617981D01*
X5761098Y22640104D01*
X5798864Y22655747D01*
X5847260Y22665374D01*
X5895655Y22675000D01*
X5994345Y22675000D01*
X6042740Y22665374D01*
X6042740Y22665374D01*
G37*
G36*
X3042740Y22665374D02*
G01*
X3091136Y22655747D01*
X3128902Y22640104D01*
X3182311Y22617981D01*
X3182312Y22617980D01*
X3264369Y22563152D01*
X3334152Y22493369D01*
X3334153Y22493367D01*
X3388981Y22411311D01*
X3426747Y22320135D01*
X3446000Y22223345D01*
X3446000Y22124655D01*
X3426747Y22027865D01*
X3388981Y21936689D01*
X3388980Y21936688D01*
X3334152Y21854631D01*
X3264369Y21784848D01*
X3223062Y21757248D01*
X3182311Y21730019D01*
X3128902Y21707896D01*
X3091136Y21692253D01*
X3042740Y21682627D01*
X2994345Y21673000D01*
X2895655Y21673000D01*
X2847260Y21682627D01*
X2798864Y21692253D01*
X2761098Y21707896D01*
X2707689Y21730019D01*
X2666938Y21757248D01*
X2625631Y21784848D01*
X2555848Y21854631D01*
X2501020Y21936688D01*
X2501019Y21936689D01*
X2463253Y22027865D01*
X2444000Y22124655D01*
X2444000Y22223345D01*
X2463253Y22320135D01*
X2501019Y22411311D01*
X2555847Y22493367D01*
X2555848Y22493369D01*
X2625631Y22563152D01*
X2707688Y22617980D01*
X2707689Y22617981D01*
X2761098Y22640104D01*
X2798864Y22655747D01*
X2847260Y22665374D01*
X2895655Y22675000D01*
X2994345Y22675000D01*
X3042740Y22665374D01*
X3042740Y22665374D01*
G37*
G36*
X45587740Y22665374D02*
G01*
X45636136Y22655747D01*
X45673902Y22640104D01*
X45727311Y22617981D01*
X45727312Y22617980D01*
X45809369Y22563152D01*
X45879152Y22493369D01*
X45879153Y22493367D01*
X45933981Y22411311D01*
X45971747Y22320135D01*
X45991000Y22223345D01*
X45991000Y22124655D01*
X45971747Y22027865D01*
X45933981Y21936689D01*
X45933980Y21936688D01*
X45879152Y21854631D01*
X45809369Y21784848D01*
X45768062Y21757248D01*
X45727311Y21730019D01*
X45673902Y21707896D01*
X45636136Y21692253D01*
X45587740Y21682627D01*
X45539345Y21673000D01*
X45440655Y21673000D01*
X45392260Y21682627D01*
X45343864Y21692253D01*
X45306098Y21707896D01*
X45252689Y21730019D01*
X45211938Y21757248D01*
X45170631Y21784848D01*
X45100848Y21854631D01*
X45046020Y21936688D01*
X45046019Y21936689D01*
X45008253Y22027865D01*
X44989000Y22124655D01*
X44989000Y22223345D01*
X45008253Y22320135D01*
X45046019Y22411311D01*
X45100847Y22493367D01*
X45100848Y22493369D01*
X45170631Y22563152D01*
X45252688Y22617980D01*
X45252689Y22617981D01*
X45306098Y22640104D01*
X45343864Y22655747D01*
X45392260Y22665374D01*
X45440655Y22675000D01*
X45539345Y22675000D01*
X45587740Y22665374D01*
X45587740Y22665374D01*
G37*
G36*
X51191000Y22823000D02*
G01*
X50089000Y22823000D01*
X50089000Y23725000D01*
X51191000Y23725000D01*
X51191000Y22823000D01*
X51191000Y22823000D01*
G37*
G36*
X43891000Y22823000D02*
G01*
X42789000Y22823000D01*
X42789000Y23725000D01*
X43891000Y23725000D01*
X43891000Y22823000D01*
X43891000Y22823000D01*
G37*
G36*
X8646000Y22823000D02*
G01*
X7544000Y22823000D01*
X7544000Y23725000D01*
X8646000Y23725000D01*
X8646000Y22823000D01*
X8646000Y22823000D01*
G37*
G36*
X1346000Y22823000D02*
G01*
X244000Y22823000D01*
X244000Y23725000D01*
X1346000Y23725000D01*
X1346000Y22823000D01*
X1346000Y22823000D01*
G37*
G36*
X41484500Y25254000D02*
G01*
X37382500Y25254000D01*
X37382500Y29356000D01*
X41484500Y29356000D01*
X41484500Y25254000D01*
X41484500Y25254000D01*
G37*
G36*
X84029500Y25254000D02*
G01*
X79927500Y25254000D01*
X79927500Y29356000D01*
X84029500Y29356000D01*
X84029500Y25254000D01*
X84029500Y25254000D01*
G37*
G36*
X9446528Y27055482D02*
G01*
X9606947Y27006819D01*
X9739611Y26935909D01*
X9754783Y26927799D01*
X9884364Y26821454D01*
X9990709Y26691873D01*
X9990710Y26691871D01*
X10069729Y26544037D01*
X10118392Y26383618D01*
X10134822Y26216795D01*
X10118392Y26049972D01*
X10069729Y25889553D01*
X9998819Y25756889D01*
X9990709Y25741717D01*
X9884364Y25612136D01*
X9754783Y25505791D01*
X9754781Y25505790D01*
X9606947Y25426771D01*
X9446528Y25378108D01*
X9321509Y25365795D01*
X9237901Y25365795D01*
X9112882Y25378108D01*
X8952463Y25426771D01*
X8804629Y25505790D01*
X8804627Y25505791D01*
X8675046Y25612136D01*
X8568701Y25741717D01*
X8560591Y25756889D01*
X8489681Y25889553D01*
X8441018Y26049972D01*
X8424588Y26216795D01*
X8441018Y26383618D01*
X8489681Y26544037D01*
X8568700Y26691871D01*
X8568701Y26691873D01*
X8675046Y26821454D01*
X8804627Y26927799D01*
X8819799Y26935909D01*
X8952463Y27006819D01*
X9112882Y27055482D01*
X9237901Y27067795D01*
X9321509Y27067795D01*
X9446528Y27055482D01*
X9446528Y27055482D01*
G37*
G36*
X51991528Y27055482D02*
G01*
X52151947Y27006819D01*
X52284611Y26935909D01*
X52299783Y26927799D01*
X52429364Y26821454D01*
X52535709Y26691873D01*
X52535710Y26691871D01*
X52614729Y26544037D01*
X52663392Y26383618D01*
X52679822Y26216795D01*
X52663392Y26049972D01*
X52614729Y25889553D01*
X52543819Y25756889D01*
X52535709Y25741717D01*
X52429364Y25612136D01*
X52299783Y25505791D01*
X52299781Y25505790D01*
X52151947Y25426771D01*
X51991528Y25378108D01*
X51866509Y25365795D01*
X51782901Y25365795D01*
X51657882Y25378108D01*
X51497463Y25426771D01*
X51349629Y25505790D01*
X51349627Y25505791D01*
X51220046Y25612136D01*
X51113701Y25741717D01*
X51105591Y25756889D01*
X51034681Y25889553D01*
X50986018Y26049972D01*
X50969588Y26216795D01*
X50986018Y26383618D01*
X51034681Y26544037D01*
X51113700Y26691871D01*
X51113701Y26691873D01*
X51220046Y26821454D01*
X51349627Y26927799D01*
X51364799Y26935909D01*
X51497463Y27006819D01*
X51657882Y27055482D01*
X51782901Y27067795D01*
X51866509Y27067795D01*
X51991528Y27055482D01*
X51991528Y27055482D01*
G37*
G36*
X41484500Y30334000D02*
G01*
X37382500Y30334000D01*
X37382500Y34436000D01*
X41484500Y34436000D01*
X41484500Y30334000D01*
X41484500Y30334000D01*
G37*
G36*
X84029500Y30334000D02*
G01*
X79927500Y30334000D01*
X79927500Y34436000D01*
X84029500Y34436000D01*
X84029500Y30334000D01*
X84029500Y30334000D01*
G37*
G36*
X2343728Y34219297D02*
G01*
X2498600Y34155147D01*
X2637981Y34062015D01*
X2756515Y33943481D01*
X2849647Y33804100D01*
X2913797Y33649228D01*
X2946500Y33484816D01*
X2946500Y33317184D01*
X2913797Y33152772D01*
X2849647Y32997900D01*
X2756515Y32858519D01*
X2637981Y32739985D01*
X2498600Y32646853D01*
X2343728Y32582703D01*
X2179316Y32550000D01*
X2011684Y32550000D01*
X1847272Y32582703D01*
X1692400Y32646853D01*
X1553019Y32739985D01*
X1434485Y32858519D01*
X1341353Y32997900D01*
X1277203Y33152772D01*
X1244500Y33317184D01*
X1244500Y33484816D01*
X1277203Y33649228D01*
X1341353Y33804100D01*
X1434485Y33943481D01*
X1553019Y34062015D01*
X1692400Y34155147D01*
X1847272Y34219297D01*
X2011684Y34252000D01*
X2179316Y34252000D01*
X2343728Y34219297D01*
X2343728Y34219297D01*
G37*
G36*
X44888728Y34219297D02*
G01*
X45043600Y34155147D01*
X45182981Y34062015D01*
X45301515Y33943481D01*
X45394647Y33804100D01*
X45458797Y33649228D01*
X45491500Y33484816D01*
X45491500Y33317184D01*
X45458797Y33152772D01*
X45394647Y32997900D01*
X45301515Y32858519D01*
X45182981Y32739985D01*
X45043600Y32646853D01*
X44888728Y32582703D01*
X44724316Y32550000D01*
X44556684Y32550000D01*
X44392272Y32582703D01*
X44237400Y32646853D01*
X44098019Y32739985D01*
X43979485Y32858519D01*
X43886353Y32997900D01*
X43822203Y33152772D01*
X43789500Y33317184D01*
X43789500Y33484816D01*
X43822203Y33649228D01*
X43886353Y33804100D01*
X43979485Y33943481D01*
X44098019Y34062015D01*
X44237400Y34155147D01*
X44392272Y34219297D01*
X44556684Y34252000D01*
X44724316Y34252000D01*
X44888728Y34219297D01*
X44888728Y34219297D01*
G37*
G36*
X77687500Y35152000D02*
G01*
X74585500Y35152000D01*
X74585500Y38254000D01*
X77687500Y38254000D01*
X77687500Y35152000D01*
X77687500Y35152000D01*
G37*
G36*
X35142500Y35152000D02*
G01*
X32040500Y35152000D01*
X32040500Y38254000D01*
X35142500Y38254000D01*
X35142500Y35152000D01*
X35142500Y35152000D01*
G37*
G36*
X13404085Y38224198D02*
G01*
X13553910Y38194396D01*
X13836174Y38077479D01*
X14090205Y37907741D01*
X14306241Y37691705D01*
X14475979Y37437674D01*
X14592896Y37155410D01*
X14652500Y36855760D01*
X14652500Y36550240D01*
X14592896Y36250590D01*
X14475979Y35968326D01*
X14306241Y35714295D01*
X14090205Y35498259D01*
X13836174Y35328521D01*
X13553910Y35211604D01*
X13404085Y35181802D01*
X13254261Y35152000D01*
X12948739Y35152000D01*
X12798915Y35181802D01*
X12649090Y35211604D01*
X12366826Y35328521D01*
X12112795Y35498259D01*
X11896759Y35714295D01*
X11727021Y35968326D01*
X11610104Y36250590D01*
X11550500Y36550240D01*
X11550500Y36855760D01*
X11610104Y37155410D01*
X11727021Y37437674D01*
X11896759Y37691705D01*
X12112795Y37907741D01*
X12366826Y38077479D01*
X12649090Y38194396D01*
X12798915Y38224198D01*
X12948739Y38254000D01*
X13254261Y38254000D01*
X13404085Y38224198D01*
X13404085Y38224198D01*
G37*
G36*
X55949085Y38224198D02*
G01*
X56098910Y38194396D01*
X56381174Y38077479D01*
X56635205Y37907741D01*
X56851241Y37691705D01*
X57020979Y37437674D01*
X57137896Y37155410D01*
X57197500Y36855760D01*
X57197500Y36550240D01*
X57137896Y36250590D01*
X57020979Y35968326D01*
X56851241Y35714295D01*
X56635205Y35498259D01*
X56381174Y35328521D01*
X56098910Y35211604D01*
X55949085Y35181802D01*
X55799261Y35152000D01*
X55493739Y35152000D01*
X55343915Y35181802D01*
X55194090Y35211604D01*
X54911826Y35328521D01*
X54657795Y35498259D01*
X54441759Y35714295D01*
X54272021Y35968326D01*
X54155104Y36250590D01*
X54095500Y36550240D01*
X54095500Y36855760D01*
X54155104Y37155410D01*
X54272021Y37437674D01*
X54441759Y37691705D01*
X54657795Y37907741D01*
X54911826Y38077479D01*
X55194090Y38194396D01*
X55343915Y38224198D01*
X55493739Y38254000D01*
X55799261Y38254000D01*
X55949085Y38224198D01*
X55949085Y38224198D01*
G37*
G36*
X4189500Y35814000D02*
G01*
X2287500Y35814000D01*
X2287500Y37716000D01*
X4189500Y37716000D01*
X4189500Y35814000D01*
X4189500Y35814000D01*
G37*
G36*
X46734500Y35814000D02*
G01*
X44832500Y35814000D01*
X44832500Y37716000D01*
X46734500Y37716000D01*
X46734500Y35814000D01*
X46734500Y35814000D01*
G37*
G36*
X46060895Y40219454D02*
G01*
X46233966Y40147766D01*
X46233967Y40147765D01*
X46389727Y40043690D01*
X46522190Y39911227D01*
X46522191Y39911225D01*
X46626266Y39755466D01*
X46697954Y39582395D01*
X46734500Y39398667D01*
X46734500Y39211333D01*
X46697954Y39027605D01*
X46626266Y38854534D01*
X46626265Y38854533D01*
X46522190Y38698773D01*
X46389727Y38566310D01*
X46311318Y38513919D01*
X46233966Y38462234D01*
X46060895Y38390546D01*
X45877167Y38354000D01*
X45689833Y38354000D01*
X45506105Y38390546D01*
X45333034Y38462234D01*
X45255682Y38513919D01*
X45177273Y38566310D01*
X45044810Y38698773D01*
X44940735Y38854533D01*
X44940734Y38854534D01*
X44869046Y39027605D01*
X44832500Y39211333D01*
X44832500Y39398667D01*
X44869046Y39582395D01*
X44940734Y39755466D01*
X45044809Y39911225D01*
X45044810Y39911227D01*
X45177273Y40043690D01*
X45333033Y40147765D01*
X45333034Y40147766D01*
X45506105Y40219454D01*
X45689833Y40256000D01*
X45877167Y40256000D01*
X46060895Y40219454D01*
X46060895Y40219454D01*
G37*
G36*
X3515895Y40219454D02*
G01*
X3688966Y40147766D01*
X3688967Y40147765D01*
X3844727Y40043690D01*
X3977190Y39911227D01*
X3977191Y39911225D01*
X4081266Y39755466D01*
X4152954Y39582395D01*
X4189500Y39398667D01*
X4189500Y39211333D01*
X4152954Y39027605D01*
X4081266Y38854534D01*
X4081265Y38854533D01*
X3977190Y38698773D01*
X3844727Y38566310D01*
X3766318Y38513919D01*
X3688966Y38462234D01*
X3515895Y38390546D01*
X3332167Y38354000D01*
X3144833Y38354000D01*
X2961105Y38390546D01*
X2788034Y38462234D01*
X2710682Y38513919D01*
X2632273Y38566310D01*
X2499810Y38698773D01*
X2395735Y38854533D01*
X2395734Y38854534D01*
X2324046Y39027605D01*
X2287500Y39211333D01*
X2287500Y39398667D01*
X2324046Y39582395D01*
X2395734Y39755466D01*
X2499809Y39911225D01*
X2499810Y39911227D01*
X2632273Y40043690D01*
X2788033Y40147765D01*
X2788034Y40147766D01*
X2961105Y40219454D01*
X3144833Y40256000D01*
X3332167Y40256000D01*
X3515895Y40219454D01*
X3515895Y40219454D01*
G37*
G36*
X41484500Y39097000D02*
G01*
X37382500Y39097000D01*
X37382500Y43199000D01*
X41484500Y43199000D01*
X41484500Y39097000D01*
X41484500Y39097000D01*
G37*
G36*
X84029500Y39097000D02*
G01*
X79927500Y39097000D01*
X79927500Y43199000D01*
X84029500Y43199000D01*
X84029500Y39097000D01*
X84029500Y39097000D01*
G37*
G36*
X32751916Y44099666D02*
G01*
X32860492Y44066729D01*
X32860495Y44066728D01*
X32896601Y44047429D01*
X32960557Y44013244D01*
X33048264Y43941264D01*
X33111383Y43864354D01*
X33128702Y43847035D01*
X33149077Y43833421D01*
X33171716Y43824043D01*
X33195749Y43819263D01*
X33220253Y43819263D01*
X33244286Y43824043D01*
X33266925Y43833421D01*
X33287299Y43847034D01*
X33304626Y43864361D01*
X33318240Y43884736D01*
X33327618Y43907375D01*
X33332398Y43931408D01*
X33333000Y43943660D01*
X33333000Y44108000D01*
X34485000Y44108000D01*
X34485000Y42506000D01*
X33333000Y42506000D01*
X33333000Y42670340D01*
X33330598Y42694726D01*
X33323485Y42718175D01*
X33311934Y42739786D01*
X33296389Y42758728D01*
X33277447Y42774273D01*
X33255836Y42785824D01*
X33232387Y42792937D01*
X33208001Y42795339D01*
X33183615Y42792937D01*
X33160166Y42785824D01*
X33138555Y42774273D01*
X33111381Y42749644D01*
X33048264Y42672736D01*
X32960556Y42600756D01*
X32896600Y42566571D01*
X32860494Y42547272D01*
X32860491Y42547271D01*
X32751915Y42514334D01*
X32639000Y42503213D01*
X32526084Y42514334D01*
X32417508Y42547271D01*
X32417505Y42547272D01*
X32381399Y42566571D01*
X32317443Y42600756D01*
X32229736Y42672736D01*
X32157756Y42760444D01*
X32114239Y42841860D01*
X32100625Y42862234D01*
X32083298Y42879561D01*
X32062924Y42893175D01*
X32040285Y42902552D01*
X32016251Y42907332D01*
X31991747Y42907332D01*
X31967714Y42902551D01*
X31945075Y42893174D01*
X31924701Y42879560D01*
X31907374Y42862233D01*
X31893762Y42841860D01*
X31850244Y42760443D01*
X31778264Y42672736D01*
X31690556Y42600756D01*
X31626600Y42566571D01*
X31590494Y42547272D01*
X31590491Y42547271D01*
X31481915Y42514334D01*
X31369000Y42503213D01*
X31256084Y42514334D01*
X31147508Y42547271D01*
X31147505Y42547272D01*
X31111399Y42566571D01*
X31047443Y42600756D01*
X30959736Y42672736D01*
X30887756Y42760444D01*
X30844239Y42841860D01*
X30834272Y42860506D01*
X30828492Y42879560D01*
X30801334Y42969085D01*
X30793000Y43053703D01*
X30793000Y43560298D01*
X30801334Y43644916D01*
X30834271Y43753492D01*
X30834272Y43753495D01*
X30887756Y43853555D01*
X30887757Y43853557D01*
X30959737Y43941264D01*
X31047444Y44013244D01*
X31111400Y44047429D01*
X31147506Y44066728D01*
X31147509Y44066729D01*
X31256085Y44099666D01*
X31369000Y44110787D01*
X31481916Y44099666D01*
X31590492Y44066729D01*
X31590495Y44066728D01*
X31626601Y44047429D01*
X31690557Y44013244D01*
X31778264Y43941264D01*
X31850244Y43853557D01*
X31866019Y43824043D01*
X31893761Y43772141D01*
X31907375Y43751766D01*
X31924702Y43734439D01*
X31945076Y43720826D01*
X31967715Y43711448D01*
X31991748Y43706668D01*
X32016252Y43706668D01*
X32040285Y43711448D01*
X32062924Y43720826D01*
X32083299Y43734440D01*
X32100626Y43751767D01*
X32114239Y43772141D01*
X32157756Y43853555D01*
X32157757Y43853557D01*
X32229737Y43941264D01*
X32317444Y44013244D01*
X32381400Y44047429D01*
X32417506Y44066728D01*
X32417509Y44066729D01*
X32526085Y44099666D01*
X32639000Y44110787D01*
X32751916Y44099666D01*
X32751916Y44099666D01*
G37*
G36*
X75296916Y44099666D02*
G01*
X75405492Y44066729D01*
X75405495Y44066728D01*
X75441601Y44047429D01*
X75505557Y44013244D01*
X75593264Y43941264D01*
X75656383Y43864354D01*
X75673702Y43847035D01*
X75694077Y43833421D01*
X75716716Y43824043D01*
X75740749Y43819263D01*
X75765253Y43819263D01*
X75789286Y43824043D01*
X75811925Y43833421D01*
X75832299Y43847034D01*
X75849626Y43864361D01*
X75863240Y43884736D01*
X75872618Y43907375D01*
X75877398Y43931408D01*
X75878000Y43943660D01*
X75878000Y44108000D01*
X77030000Y44108000D01*
X77030000Y42506000D01*
X75878000Y42506000D01*
X75878000Y42670340D01*
X75875598Y42694726D01*
X75868485Y42718175D01*
X75856934Y42739786D01*
X75841389Y42758728D01*
X75822447Y42774273D01*
X75800836Y42785824D01*
X75777387Y42792937D01*
X75753001Y42795339D01*
X75728615Y42792937D01*
X75705166Y42785824D01*
X75683555Y42774273D01*
X75656381Y42749644D01*
X75593264Y42672736D01*
X75505556Y42600756D01*
X75441600Y42566571D01*
X75405494Y42547272D01*
X75405491Y42547271D01*
X75296915Y42514334D01*
X75184000Y42503213D01*
X75071084Y42514334D01*
X74962508Y42547271D01*
X74962505Y42547272D01*
X74926399Y42566571D01*
X74862443Y42600756D01*
X74774736Y42672736D01*
X74702756Y42760444D01*
X74659239Y42841860D01*
X74645625Y42862234D01*
X74628298Y42879561D01*
X74607924Y42893175D01*
X74585285Y42902552D01*
X74561251Y42907332D01*
X74536747Y42907332D01*
X74512714Y42902551D01*
X74490075Y42893174D01*
X74469701Y42879560D01*
X74452374Y42862233D01*
X74438762Y42841860D01*
X74395244Y42760443D01*
X74323264Y42672736D01*
X74235556Y42600756D01*
X74171600Y42566571D01*
X74135494Y42547272D01*
X74135491Y42547271D01*
X74026915Y42514334D01*
X73914000Y42503213D01*
X73801084Y42514334D01*
X73692508Y42547271D01*
X73692505Y42547272D01*
X73656399Y42566571D01*
X73592443Y42600756D01*
X73504736Y42672736D01*
X73432756Y42760444D01*
X73389239Y42841860D01*
X73379272Y42860506D01*
X73373492Y42879560D01*
X73346334Y42969085D01*
X73338000Y43053703D01*
X73338000Y43560298D01*
X73346334Y43644916D01*
X73379271Y43753492D01*
X73379272Y43753495D01*
X73432756Y43853555D01*
X73432757Y43853557D01*
X73504737Y43941264D01*
X73592444Y44013244D01*
X73656400Y44047429D01*
X73692506Y44066728D01*
X73692509Y44066729D01*
X73801085Y44099666D01*
X73914000Y44110787D01*
X74026916Y44099666D01*
X74135492Y44066729D01*
X74135495Y44066728D01*
X74171601Y44047429D01*
X74235557Y44013244D01*
X74323264Y43941264D01*
X74395244Y43853557D01*
X74411019Y43824043D01*
X74438761Y43772141D01*
X74452375Y43751766D01*
X74469702Y43734439D01*
X74490076Y43720826D01*
X74512715Y43711448D01*
X74536748Y43706668D01*
X74561252Y43706668D01*
X74585285Y43711448D01*
X74607924Y43720826D01*
X74628299Y43734440D01*
X74645626Y43751767D01*
X74659239Y43772141D01*
X74702756Y43853555D01*
X74702757Y43853557D01*
X74774737Y43941264D01*
X74862444Y44013244D01*
X74926400Y44047429D01*
X74962506Y44066728D01*
X74962509Y44066729D01*
X75071085Y44099666D01*
X75184000Y44110787D01*
X75296916Y44099666D01*
X75296916Y44099666D01*
G37*
G36*
X84029500Y44177000D02*
G01*
X79927500Y44177000D01*
X79927500Y48279000D01*
X84029500Y48279000D01*
X84029500Y44177000D01*
X84029500Y44177000D01*
G37*
G36*
X41484500Y44177000D02*
G01*
X37382500Y44177000D01*
X37382500Y48279000D01*
X41484500Y48279000D01*
X41484500Y44177000D01*
X41484500Y44177000D01*
G37*
G36*
X2596000Y44378000D02*
G01*
X1794000Y44378000D01*
X1794000Y45980000D01*
X2596000Y45980000D01*
X2596000Y44378000D01*
X2596000Y44378000D01*
G37*
G36*
X7096000Y44378000D02*
G01*
X6294000Y44378000D01*
X6294000Y45980000D01*
X7096000Y45980000D01*
X7096000Y44378000D01*
X7096000Y44378000D01*
G37*
G36*
X45141000Y44378000D02*
G01*
X44339000Y44378000D01*
X44339000Y45980000D01*
X45141000Y45980000D01*
X45141000Y44378000D01*
X45141000Y44378000D01*
G37*
G36*
X46641000Y44378000D02*
G01*
X45839000Y44378000D01*
X45839000Y45980000D01*
X46641000Y45980000D01*
X46641000Y44378000D01*
X46641000Y44378000D01*
G37*
G36*
X49641000Y44378000D02*
G01*
X48839000Y44378000D01*
X48839000Y45980000D01*
X49641000Y45980000D01*
X49641000Y44378000D01*
X49641000Y44378000D01*
G37*
G36*
X4096000Y44378000D02*
G01*
X3294000Y44378000D01*
X3294000Y45980000D01*
X4096000Y45980000D01*
X4096000Y44378000D01*
X4096000Y44378000D01*
G37*
G36*
X43891000Y45378000D02*
G01*
X42789000Y45378000D01*
X42789000Y46280000D01*
X43891000Y46280000D01*
X43891000Y45378000D01*
X43891000Y45378000D01*
G37*
G36*
X1346000Y45378000D02*
G01*
X244000Y45378000D01*
X244000Y46280000D01*
X1346000Y46280000D01*
X1346000Y45378000D01*
X1346000Y45378000D01*
G37*
G36*
X8646000Y45378000D02*
G01*
X7544000Y45378000D01*
X7544000Y46280000D01*
X8646000Y46280000D01*
X8646000Y45378000D01*
X8646000Y45378000D01*
G37*
G36*
X51191000Y45378000D02*
G01*
X50089000Y45378000D01*
X50089000Y46280000D01*
X51191000Y46280000D01*
X51191000Y45378000D01*
X51191000Y45378000D01*
G37*
G36*
X45587740Y47430373D02*
G01*
X45636136Y47420747D01*
X45673902Y47405104D01*
X45727311Y47382981D01*
X45727312Y47382980D01*
X45809369Y47328152D01*
X45879152Y47258369D01*
X45879153Y47258367D01*
X45933981Y47176311D01*
X45971747Y47085135D01*
X45991000Y46988345D01*
X45991000Y46889655D01*
X45971747Y46792865D01*
X45933981Y46701689D01*
X45933980Y46701688D01*
X45879152Y46619631D01*
X45809369Y46549848D01*
X45768062Y46522248D01*
X45727311Y46495019D01*
X45673902Y46472896D01*
X45636136Y46457253D01*
X45587740Y46447626D01*
X45539345Y46438000D01*
X45440655Y46438000D01*
X45392260Y46447626D01*
X45343864Y46457253D01*
X45306098Y46472896D01*
X45252689Y46495019D01*
X45211938Y46522248D01*
X45170631Y46549848D01*
X45100848Y46619631D01*
X45046020Y46701688D01*
X45046019Y46701689D01*
X45008253Y46792865D01*
X44989000Y46889655D01*
X44989000Y46988345D01*
X45008253Y47085135D01*
X45046019Y47176311D01*
X45100847Y47258367D01*
X45100848Y47258369D01*
X45170631Y47328152D01*
X45252688Y47382980D01*
X45252689Y47382981D01*
X45306098Y47405104D01*
X45343864Y47420747D01*
X45392260Y47430373D01*
X45440655Y47440000D01*
X45539345Y47440000D01*
X45587740Y47430373D01*
X45587740Y47430373D01*
G37*
G36*
X48587740Y47430373D02*
G01*
X48636136Y47420747D01*
X48673902Y47405104D01*
X48727311Y47382981D01*
X48727312Y47382980D01*
X48809369Y47328152D01*
X48879152Y47258369D01*
X48879153Y47258367D01*
X48933981Y47176311D01*
X48971747Y47085135D01*
X48991000Y46988345D01*
X48991000Y46889655D01*
X48971747Y46792865D01*
X48933981Y46701689D01*
X48933980Y46701688D01*
X48879152Y46619631D01*
X48809369Y46549848D01*
X48768062Y46522248D01*
X48727311Y46495019D01*
X48673902Y46472896D01*
X48636136Y46457253D01*
X48587740Y46447626D01*
X48539345Y46438000D01*
X48440655Y46438000D01*
X48392260Y46447626D01*
X48343864Y46457253D01*
X48306098Y46472896D01*
X48252689Y46495019D01*
X48211938Y46522248D01*
X48170631Y46549848D01*
X48100848Y46619631D01*
X48046020Y46701688D01*
X48046019Y46701689D01*
X48008253Y46792865D01*
X47989000Y46889655D01*
X47989000Y46988345D01*
X48008253Y47085135D01*
X48046019Y47176311D01*
X48100847Y47258367D01*
X48100848Y47258369D01*
X48170631Y47328152D01*
X48252688Y47382980D01*
X48252689Y47382981D01*
X48306098Y47405104D01*
X48343864Y47420747D01*
X48392260Y47430373D01*
X48440655Y47440000D01*
X48539345Y47440000D01*
X48587740Y47430373D01*
X48587740Y47430373D01*
G37*
G36*
X6042740Y47430373D02*
G01*
X6091136Y47420747D01*
X6128902Y47405104D01*
X6182311Y47382981D01*
X6182312Y47382980D01*
X6264369Y47328152D01*
X6334152Y47258369D01*
X6334153Y47258367D01*
X6388981Y47176311D01*
X6426747Y47085135D01*
X6446000Y46988345D01*
X6446000Y46889655D01*
X6426747Y46792865D01*
X6388981Y46701689D01*
X6388980Y46701688D01*
X6334152Y46619631D01*
X6264369Y46549848D01*
X6223062Y46522248D01*
X6182311Y46495019D01*
X6128902Y46472896D01*
X6091136Y46457253D01*
X6042740Y46447626D01*
X5994345Y46438000D01*
X5895655Y46438000D01*
X5847260Y46447626D01*
X5798864Y46457253D01*
X5761098Y46472896D01*
X5707689Y46495019D01*
X5666938Y46522248D01*
X5625631Y46549848D01*
X5555848Y46619631D01*
X5501020Y46701688D01*
X5501019Y46701689D01*
X5463253Y46792865D01*
X5444000Y46889655D01*
X5444000Y46988345D01*
X5463253Y47085135D01*
X5501019Y47176311D01*
X5555847Y47258367D01*
X5555848Y47258369D01*
X5625631Y47328152D01*
X5707688Y47382980D01*
X5707689Y47382981D01*
X5761098Y47405104D01*
X5798864Y47420747D01*
X5847260Y47430373D01*
X5895655Y47440000D01*
X5994345Y47440000D01*
X6042740Y47430373D01*
X6042740Y47430373D01*
G37*
G36*
X3042740Y47430373D02*
G01*
X3091136Y47420747D01*
X3128902Y47405104D01*
X3182311Y47382981D01*
X3182312Y47382980D01*
X3264369Y47328152D01*
X3334152Y47258369D01*
X3334153Y47258367D01*
X3388981Y47176311D01*
X3426747Y47085135D01*
X3446000Y46988345D01*
X3446000Y46889655D01*
X3426747Y46792865D01*
X3388981Y46701689D01*
X3388980Y46701688D01*
X3334152Y46619631D01*
X3264369Y46549848D01*
X3223062Y46522248D01*
X3182311Y46495019D01*
X3128902Y46472896D01*
X3091136Y46457253D01*
X3042740Y46447626D01*
X2994345Y46438000D01*
X2895655Y46438000D01*
X2847260Y46447626D01*
X2798864Y46457253D01*
X2761098Y46472896D01*
X2707689Y46495019D01*
X2666938Y46522248D01*
X2625631Y46549848D01*
X2555848Y46619631D01*
X2501020Y46701688D01*
X2501019Y46701689D01*
X2463253Y46792865D01*
X2444000Y46889655D01*
X2444000Y46988345D01*
X2463253Y47085135D01*
X2501019Y47176311D01*
X2555847Y47258367D01*
X2555848Y47258369D01*
X2625631Y47328152D01*
X2707688Y47382980D01*
X2707689Y47382981D01*
X2761098Y47405104D01*
X2798864Y47420747D01*
X2847260Y47430373D01*
X2895655Y47440000D01*
X2994345Y47440000D01*
X3042740Y47430373D01*
X3042740Y47430373D01*
G37*
G36*
X1346000Y47588000D02*
G01*
X244000Y47588000D01*
X244000Y48490000D01*
X1346000Y48490000D01*
X1346000Y47588000D01*
X1346000Y47588000D01*
G37*
G36*
X8646000Y47588000D02*
G01*
X7544000Y47588000D01*
X7544000Y48490000D01*
X8646000Y48490000D01*
X8646000Y47588000D01*
X8646000Y47588000D01*
G37*
G36*
X51191000Y47588000D02*
G01*
X50089000Y47588000D01*
X50089000Y48490000D01*
X51191000Y48490000D01*
X51191000Y47588000D01*
X51191000Y47588000D01*
G37*
G36*
X43891000Y47588000D02*
G01*
X42789000Y47588000D01*
X42789000Y48490000D01*
X43891000Y48490000D01*
X43891000Y47588000D01*
X43891000Y47588000D01*
G37*
G36*
X41484500Y50019000D02*
G01*
X37382500Y50019000D01*
X37382500Y54121000D01*
X41484500Y54121000D01*
X41484500Y50019000D01*
X41484500Y50019000D01*
G37*
G36*
X84029500Y50019000D02*
G01*
X79927500Y50019000D01*
X79927500Y54121000D01*
X84029500Y54121000D01*
X84029500Y50019000D01*
X84029500Y50019000D01*
G37*
G36*
X9446528Y51820482D02*
G01*
X9606947Y51771819D01*
X9739611Y51700909D01*
X9754783Y51692799D01*
X9884364Y51586454D01*
X9990709Y51456873D01*
X9990710Y51456871D01*
X10069729Y51309037D01*
X10118392Y51148618D01*
X10134822Y50981795D01*
X10118392Y50814972D01*
X10069729Y50654553D01*
X9998819Y50521889D01*
X9990709Y50506717D01*
X9884364Y50377136D01*
X9754783Y50270791D01*
X9754781Y50270790D01*
X9606947Y50191771D01*
X9446528Y50143108D01*
X9321509Y50130795D01*
X9237901Y50130795D01*
X9112882Y50143108D01*
X8952463Y50191771D01*
X8804629Y50270790D01*
X8804627Y50270791D01*
X8675046Y50377136D01*
X8568701Y50506717D01*
X8560591Y50521889D01*
X8489681Y50654553D01*
X8441018Y50814972D01*
X8424588Y50981795D01*
X8441018Y51148618D01*
X8489681Y51309037D01*
X8568700Y51456871D01*
X8568701Y51456873D01*
X8675046Y51586454D01*
X8804627Y51692799D01*
X8819799Y51700909D01*
X8952463Y51771819D01*
X9112882Y51820482D01*
X9237901Y51832795D01*
X9321509Y51832795D01*
X9446528Y51820482D01*
X9446528Y51820482D01*
G37*
G36*
X51991528Y51820482D02*
G01*
X52151947Y51771819D01*
X52284611Y51700909D01*
X52299783Y51692799D01*
X52429364Y51586454D01*
X52535709Y51456873D01*
X52535710Y51456871D01*
X52614729Y51309037D01*
X52663392Y51148618D01*
X52679822Y50981795D01*
X52663392Y50814972D01*
X52614729Y50654553D01*
X52543819Y50521889D01*
X52535709Y50506717D01*
X52429364Y50377136D01*
X52299783Y50270791D01*
X52299781Y50270790D01*
X52151947Y50191771D01*
X51991528Y50143108D01*
X51866509Y50130795D01*
X51782901Y50130795D01*
X51657882Y50143108D01*
X51497463Y50191771D01*
X51349629Y50270790D01*
X51349627Y50270791D01*
X51220046Y50377136D01*
X51113701Y50506717D01*
X51105591Y50521889D01*
X51034681Y50654553D01*
X50986018Y50814972D01*
X50969588Y50981795D01*
X50986018Y51148618D01*
X51034681Y51309037D01*
X51113700Y51456871D01*
X51113701Y51456873D01*
X51220046Y51586454D01*
X51349627Y51692799D01*
X51364799Y51700909D01*
X51497463Y51771819D01*
X51657882Y51820482D01*
X51782901Y51832795D01*
X51866509Y51832795D01*
X51991528Y51820482D01*
X51991528Y51820482D01*
G37*
G36*
X84029500Y55099000D02*
G01*
X79927500Y55099000D01*
X79927500Y59201000D01*
X84029500Y59201000D01*
X84029500Y55099000D01*
X84029500Y55099000D01*
G37*
G36*
X41484500Y55099000D02*
G01*
X37382500Y55099000D01*
X37382500Y59201000D01*
X41484500Y59201000D01*
X41484500Y55099000D01*
X41484500Y55099000D01*
G37*
G36*
X2343728Y58984297D02*
G01*
X2498600Y58920147D01*
X2637981Y58827015D01*
X2756515Y58708481D01*
X2849647Y58569100D01*
X2913797Y58414228D01*
X2946500Y58249816D01*
X2946500Y58082184D01*
X2913797Y57917772D01*
X2849647Y57762900D01*
X2756515Y57623519D01*
X2637981Y57504985D01*
X2498600Y57411853D01*
X2343728Y57347703D01*
X2179316Y57315000D01*
X2011684Y57315000D01*
X1847272Y57347703D01*
X1692400Y57411853D01*
X1553019Y57504985D01*
X1434485Y57623519D01*
X1341353Y57762900D01*
X1277203Y57917772D01*
X1244500Y58082184D01*
X1244500Y58249816D01*
X1277203Y58414228D01*
X1341353Y58569100D01*
X1434485Y58708481D01*
X1553019Y58827015D01*
X1692400Y58920147D01*
X1847272Y58984297D01*
X2011684Y59017000D01*
X2179316Y59017000D01*
X2343728Y58984297D01*
X2343728Y58984297D01*
G37*
G36*
X44888728Y58984297D02*
G01*
X45043600Y58920147D01*
X45182981Y58827015D01*
X45301515Y58708481D01*
X45394647Y58569100D01*
X45458797Y58414228D01*
X45491500Y58249816D01*
X45491500Y58082184D01*
X45458797Y57917772D01*
X45394647Y57762900D01*
X45301515Y57623519D01*
X45182981Y57504985D01*
X45043600Y57411853D01*
X44888728Y57347703D01*
X44724316Y57315000D01*
X44556684Y57315000D01*
X44392272Y57347703D01*
X44237400Y57411853D01*
X44098019Y57504985D01*
X43979485Y57623519D01*
X43886353Y57762900D01*
X43822203Y57917772D01*
X43789500Y58082184D01*
X43789500Y58249816D01*
X43822203Y58414228D01*
X43886353Y58569100D01*
X43979485Y58708481D01*
X44098019Y58827015D01*
X44237400Y58920147D01*
X44392272Y58984297D01*
X44556684Y59017000D01*
X44724316Y59017000D01*
X44888728Y58984297D01*
X44888728Y58984297D01*
G37*
G36*
X55949085Y62989198D02*
G01*
X56098910Y62959396D01*
X56381174Y62842479D01*
X56635205Y62672741D01*
X56851241Y62456705D01*
X57020979Y62202674D01*
X57137896Y61920410D01*
X57197500Y61620760D01*
X57197500Y61315240D01*
X57137896Y61015590D01*
X57020979Y60733326D01*
X56851241Y60479295D01*
X56635205Y60263259D01*
X56381174Y60093521D01*
X56098910Y59976604D01*
X55949085Y59946802D01*
X55799261Y59917000D01*
X55493739Y59917000D01*
X55343915Y59946802D01*
X55194090Y59976604D01*
X54911826Y60093521D01*
X54657795Y60263259D01*
X54441759Y60479295D01*
X54272021Y60733326D01*
X54155104Y61015590D01*
X54095500Y61315240D01*
X54095500Y61620760D01*
X54155104Y61920410D01*
X54272021Y62202674D01*
X54441759Y62456705D01*
X54657795Y62672741D01*
X54911826Y62842479D01*
X55194090Y62959396D01*
X55343915Y62989198D01*
X55493739Y63019000D01*
X55799261Y63019000D01*
X55949085Y62989198D01*
X55949085Y62989198D01*
G37*
G36*
X35142500Y59917000D02*
G01*
X32040500Y59917000D01*
X32040500Y63019000D01*
X35142500Y63019000D01*
X35142500Y59917000D01*
X35142500Y59917000D01*
G37*
G36*
X77687500Y59917000D02*
G01*
X74585500Y59917000D01*
X74585500Y63019000D01*
X77687500Y63019000D01*
X77687500Y59917000D01*
X77687500Y59917000D01*
G37*
G36*
X13404085Y62989198D02*
G01*
X13553910Y62959396D01*
X13836174Y62842479D01*
X14090205Y62672741D01*
X14306241Y62456705D01*
X14475979Y62202674D01*
X14592896Y61920410D01*
X14652500Y61620760D01*
X14652500Y61315240D01*
X14592896Y61015590D01*
X14475979Y60733326D01*
X14306241Y60479295D01*
X14090205Y60263259D01*
X13836174Y60093521D01*
X13553910Y59976604D01*
X13404085Y59946802D01*
X13254261Y59917000D01*
X12948739Y59917000D01*
X12798915Y59946802D01*
X12649090Y59976604D01*
X12366826Y60093521D01*
X12112795Y60263259D01*
X11896759Y60479295D01*
X11727021Y60733326D01*
X11610104Y61015590D01*
X11550500Y61315240D01*
X11550500Y61620760D01*
X11610104Y61920410D01*
X11727021Y62202674D01*
X11896759Y62456705D01*
X12112795Y62672741D01*
X12366826Y62842479D01*
X12649090Y62959396D01*
X12798915Y62989198D01*
X12948739Y63019000D01*
X13254261Y63019000D01*
X13404085Y62989198D01*
X13404085Y62989198D01*
G37*
G36*
X46734500Y60579000D02*
G01*
X44832500Y60579000D01*
X44832500Y62481000D01*
X46734500Y62481000D01*
X46734500Y60579000D01*
X46734500Y60579000D01*
G37*
G36*
X4189500Y60579000D02*
G01*
X2287500Y60579000D01*
X2287500Y62481000D01*
X4189500Y62481000D01*
X4189500Y60579000D01*
X4189500Y60579000D01*
G37*
G36*
X46060895Y64984454D02*
G01*
X46233966Y64912766D01*
X46233967Y64912765D01*
X46389727Y64808690D01*
X46522190Y64676227D01*
X46522191Y64676225D01*
X46626266Y64520466D01*
X46697954Y64347395D01*
X46734500Y64163667D01*
X46734500Y63976333D01*
X46697954Y63792605D01*
X46626266Y63619534D01*
X46626265Y63619533D01*
X46522190Y63463773D01*
X46389727Y63331310D01*
X46311318Y63278919D01*
X46233966Y63227234D01*
X46060895Y63155546D01*
X45877167Y63119000D01*
X45689833Y63119000D01*
X45506105Y63155546D01*
X45333034Y63227234D01*
X45255682Y63278919D01*
X45177273Y63331310D01*
X45044810Y63463773D01*
X44940735Y63619533D01*
X44940734Y63619534D01*
X44869046Y63792605D01*
X44832500Y63976333D01*
X44832500Y64163667D01*
X44869046Y64347395D01*
X44940734Y64520466D01*
X45044809Y64676225D01*
X45044810Y64676227D01*
X45177273Y64808690D01*
X45333033Y64912765D01*
X45333034Y64912766D01*
X45506105Y64984454D01*
X45689833Y65021000D01*
X45877167Y65021000D01*
X46060895Y64984454D01*
X46060895Y64984454D01*
G37*
G36*
X3515895Y64984454D02*
G01*
X3688966Y64912766D01*
X3688967Y64912765D01*
X3844727Y64808690D01*
X3977190Y64676227D01*
X3977191Y64676225D01*
X4081266Y64520466D01*
X4152954Y64347395D01*
X4189500Y64163667D01*
X4189500Y63976333D01*
X4152954Y63792605D01*
X4081266Y63619534D01*
X4081265Y63619533D01*
X3977190Y63463773D01*
X3844727Y63331310D01*
X3766318Y63278919D01*
X3688966Y63227234D01*
X3515895Y63155546D01*
X3332167Y63119000D01*
X3144833Y63119000D01*
X2961105Y63155546D01*
X2788034Y63227234D01*
X2710682Y63278919D01*
X2632273Y63331310D01*
X2499810Y63463773D01*
X2395735Y63619533D01*
X2395734Y63619534D01*
X2324046Y63792605D01*
X2287500Y63976333D01*
X2287500Y64163667D01*
X2324046Y64347395D01*
X2395734Y64520466D01*
X2499809Y64676225D01*
X2499810Y64676227D01*
X2632273Y64808690D01*
X2788033Y64912765D01*
X2788034Y64912766D01*
X2961105Y64984454D01*
X3144833Y65021000D01*
X3332167Y65021000D01*
X3515895Y64984454D01*
X3515895Y64984454D01*
G37*
G36*
X84029500Y63862000D02*
G01*
X79927500Y63862000D01*
X79927500Y67964000D01*
X84029500Y67964000D01*
X84029500Y63862000D01*
X84029500Y63862000D01*
G37*
G36*
X41484500Y63862000D02*
G01*
X37382500Y63862000D01*
X37382500Y67964000D01*
X41484500Y67964000D01*
X41484500Y63862000D01*
X41484500Y63862000D01*
G37*
G36*
X75296916Y68864666D02*
G01*
X75405492Y68831729D01*
X75405495Y68831728D01*
X75441601Y68812429D01*
X75505557Y68778244D01*
X75593264Y68706264D01*
X75656383Y68629354D01*
X75673702Y68612035D01*
X75694077Y68598421D01*
X75716716Y68589043D01*
X75740749Y68584263D01*
X75765253Y68584263D01*
X75789286Y68589043D01*
X75811925Y68598421D01*
X75832299Y68612034D01*
X75849626Y68629361D01*
X75863240Y68649736D01*
X75872618Y68672375D01*
X75877398Y68696408D01*
X75878000Y68708660D01*
X75878000Y68873000D01*
X77030000Y68873000D01*
X77030000Y67271000D01*
X75878000Y67271000D01*
X75878000Y67435340D01*
X75875598Y67459726D01*
X75868485Y67483175D01*
X75856934Y67504786D01*
X75841389Y67523728D01*
X75822447Y67539273D01*
X75800836Y67550824D01*
X75777387Y67557937D01*
X75753001Y67560339D01*
X75728615Y67557937D01*
X75705166Y67550824D01*
X75683555Y67539273D01*
X75656381Y67514644D01*
X75593264Y67437736D01*
X75505556Y67365756D01*
X75441600Y67331571D01*
X75405494Y67312272D01*
X75405491Y67312271D01*
X75296915Y67279334D01*
X75184000Y67268213D01*
X75071084Y67279334D01*
X74962508Y67312271D01*
X74962505Y67312272D01*
X74926399Y67331571D01*
X74862443Y67365756D01*
X74774736Y67437736D01*
X74702756Y67525444D01*
X74659239Y67606860D01*
X74645625Y67627234D01*
X74628298Y67644561D01*
X74607924Y67658175D01*
X74585285Y67667552D01*
X74561251Y67672332D01*
X74536747Y67672332D01*
X74512714Y67667551D01*
X74490075Y67658174D01*
X74469701Y67644560D01*
X74452374Y67627233D01*
X74438762Y67606860D01*
X74395244Y67525443D01*
X74323264Y67437736D01*
X74235556Y67365756D01*
X74171600Y67331571D01*
X74135494Y67312272D01*
X74135491Y67312271D01*
X74026915Y67279334D01*
X73914000Y67268213D01*
X73801084Y67279334D01*
X73692508Y67312271D01*
X73692505Y67312272D01*
X73656399Y67331571D01*
X73592443Y67365756D01*
X73504736Y67437736D01*
X73432756Y67525444D01*
X73389239Y67606860D01*
X73379272Y67625506D01*
X73373492Y67644560D01*
X73346334Y67734085D01*
X73338000Y67818703D01*
X73338000Y68325298D01*
X73346334Y68409916D01*
X73379271Y68518492D01*
X73379272Y68518495D01*
X73432756Y68618555D01*
X73432757Y68618557D01*
X73504737Y68706264D01*
X73592444Y68778244D01*
X73656400Y68812429D01*
X73692506Y68831728D01*
X73692509Y68831729D01*
X73801085Y68864666D01*
X73914000Y68875787D01*
X74026916Y68864666D01*
X74135492Y68831729D01*
X74135495Y68831728D01*
X74171601Y68812429D01*
X74235557Y68778244D01*
X74323264Y68706264D01*
X74395244Y68618557D01*
X74411019Y68589043D01*
X74438761Y68537141D01*
X74452375Y68516766D01*
X74469702Y68499439D01*
X74490076Y68485826D01*
X74512715Y68476448D01*
X74536748Y68471668D01*
X74561252Y68471668D01*
X74585285Y68476448D01*
X74607924Y68485826D01*
X74628299Y68499440D01*
X74645626Y68516767D01*
X74659239Y68537141D01*
X74702756Y68618555D01*
X74702757Y68618557D01*
X74774737Y68706264D01*
X74862444Y68778244D01*
X74926400Y68812429D01*
X74962506Y68831728D01*
X74962509Y68831729D01*
X75071085Y68864666D01*
X75184000Y68875787D01*
X75296916Y68864666D01*
X75296916Y68864666D01*
G37*
G36*
X32751916Y68864666D02*
G01*
X32860492Y68831729D01*
X32860495Y68831728D01*
X32896601Y68812429D01*
X32960557Y68778244D01*
X33048264Y68706264D01*
X33111383Y68629354D01*
X33128702Y68612035D01*
X33149077Y68598421D01*
X33171716Y68589043D01*
X33195749Y68584263D01*
X33220253Y68584263D01*
X33244286Y68589043D01*
X33266925Y68598421D01*
X33287299Y68612034D01*
X33304626Y68629361D01*
X33318240Y68649736D01*
X33327618Y68672375D01*
X33332398Y68696408D01*
X33333000Y68708660D01*
X33333000Y68873000D01*
X34485000Y68873000D01*
X34485000Y67271000D01*
X33333000Y67271000D01*
X33333000Y67435340D01*
X33330598Y67459726D01*
X33323485Y67483175D01*
X33311934Y67504786D01*
X33296389Y67523728D01*
X33277447Y67539273D01*
X33255836Y67550824D01*
X33232387Y67557937D01*
X33208001Y67560339D01*
X33183615Y67557937D01*
X33160166Y67550824D01*
X33138555Y67539273D01*
X33111381Y67514644D01*
X33048264Y67437736D01*
X32960556Y67365756D01*
X32896600Y67331571D01*
X32860494Y67312272D01*
X32860491Y67312271D01*
X32751915Y67279334D01*
X32639000Y67268213D01*
X32526084Y67279334D01*
X32417508Y67312271D01*
X32417505Y67312272D01*
X32381399Y67331571D01*
X32317443Y67365756D01*
X32229736Y67437736D01*
X32157756Y67525444D01*
X32114239Y67606860D01*
X32100625Y67627234D01*
X32083298Y67644561D01*
X32062924Y67658175D01*
X32040285Y67667552D01*
X32016251Y67672332D01*
X31991747Y67672332D01*
X31967714Y67667551D01*
X31945075Y67658174D01*
X31924701Y67644560D01*
X31907374Y67627233D01*
X31893762Y67606860D01*
X31850244Y67525443D01*
X31778264Y67437736D01*
X31690556Y67365756D01*
X31626600Y67331571D01*
X31590494Y67312272D01*
X31590491Y67312271D01*
X31481915Y67279334D01*
X31369000Y67268213D01*
X31256084Y67279334D01*
X31147508Y67312271D01*
X31147505Y67312272D01*
X31111399Y67331571D01*
X31047443Y67365756D01*
X30959736Y67437736D01*
X30887756Y67525444D01*
X30844239Y67606860D01*
X30834272Y67625506D01*
X30828492Y67644560D01*
X30801334Y67734085D01*
X30793000Y67818703D01*
X30793000Y68325298D01*
X30801334Y68409916D01*
X30834271Y68518492D01*
X30834272Y68518495D01*
X30887756Y68618555D01*
X30887757Y68618557D01*
X30959737Y68706264D01*
X31047444Y68778244D01*
X31111400Y68812429D01*
X31147506Y68831728D01*
X31147509Y68831729D01*
X31256085Y68864666D01*
X31369000Y68875787D01*
X31481916Y68864666D01*
X31590492Y68831729D01*
X31590495Y68831728D01*
X31626601Y68812429D01*
X31690557Y68778244D01*
X31778264Y68706264D01*
X31850244Y68618557D01*
X31866019Y68589043D01*
X31893761Y68537141D01*
X31907375Y68516766D01*
X31924702Y68499439D01*
X31945076Y68485826D01*
X31967715Y68476448D01*
X31991748Y68471668D01*
X32016252Y68471668D01*
X32040285Y68476448D01*
X32062924Y68485826D01*
X32083299Y68499440D01*
X32100626Y68516767D01*
X32114239Y68537141D01*
X32157756Y68618555D01*
X32157757Y68618557D01*
X32229737Y68706264D01*
X32317444Y68778244D01*
X32381400Y68812429D01*
X32417506Y68831728D01*
X32417509Y68831729D01*
X32526085Y68864666D01*
X32639000Y68875787D01*
X32751916Y68864666D01*
X32751916Y68864666D01*
G37*
G36*
X41484500Y68942000D02*
G01*
X37382500Y68942000D01*
X37382500Y73044000D01*
X41484500Y73044000D01*
X41484500Y68942000D01*
X41484500Y68942000D01*
G37*
G36*
X84029500Y68942000D02*
G01*
X79927500Y68942000D01*
X79927500Y73044000D01*
X84029500Y73044000D01*
X84029500Y68942000D01*
X84029500Y68942000D01*
G37*
G36*
X49641000Y69143000D02*
G01*
X48839000Y69143000D01*
X48839000Y70745000D01*
X49641000Y70745000D01*
X49641000Y69143000D01*
X49641000Y69143000D01*
G37*
G36*
X46641000Y69143000D02*
G01*
X45839000Y69143000D01*
X45839000Y70745000D01*
X46641000Y70745000D01*
X46641000Y69143000D01*
X46641000Y69143000D01*
G37*
G36*
X45141000Y69143000D02*
G01*
X44339000Y69143000D01*
X44339000Y70745000D01*
X45141000Y70745000D01*
X45141000Y69143000D01*
X45141000Y69143000D01*
G37*
G36*
X7096000Y69143000D02*
G01*
X6294000Y69143000D01*
X6294000Y70745000D01*
X7096000Y70745000D01*
X7096000Y69143000D01*
X7096000Y69143000D01*
G37*
G36*
X4096000Y69143000D02*
G01*
X3294000Y69143000D01*
X3294000Y70745000D01*
X4096000Y70745000D01*
X4096000Y69143000D01*
X4096000Y69143000D01*
G37*
G36*
X2596000Y69143000D02*
G01*
X1794000Y69143000D01*
X1794000Y70745000D01*
X2596000Y70745000D01*
X2596000Y69143000D01*
X2596000Y69143000D01*
G37*
G36*
X1346000Y70143000D02*
G01*
X244000Y70143000D01*
X244000Y71045000D01*
X1346000Y71045000D01*
X1346000Y70143000D01*
X1346000Y70143000D01*
G37*
G36*
X8646000Y70143000D02*
G01*
X7544000Y70143000D01*
X7544000Y71045000D01*
X8646000Y71045000D01*
X8646000Y70143000D01*
X8646000Y70143000D01*
G37*
G36*
X51191000Y70143000D02*
G01*
X50089000Y70143000D01*
X50089000Y71045000D01*
X51191000Y71045000D01*
X51191000Y70143000D01*
X51191000Y70143000D01*
G37*
G36*
X43891000Y70143000D02*
G01*
X42789000Y70143000D01*
X42789000Y71045000D01*
X43891000Y71045000D01*
X43891000Y70143000D01*
X43891000Y70143000D01*
G37*
G36*
X45587740Y72195373D02*
G01*
X45636136Y72185747D01*
X45673902Y72170104D01*
X45727311Y72147981D01*
X45727312Y72147980D01*
X45809369Y72093152D01*
X45879152Y72023369D01*
X45879153Y72023367D01*
X45933981Y71941311D01*
X45971747Y71850135D01*
X45991000Y71753345D01*
X45991000Y71654655D01*
X45971747Y71557865D01*
X45933981Y71466689D01*
X45933980Y71466688D01*
X45879152Y71384631D01*
X45809369Y71314848D01*
X45768062Y71287248D01*
X45727311Y71260019D01*
X45673902Y71237896D01*
X45636136Y71222253D01*
X45587740Y71212626D01*
X45539345Y71203000D01*
X45440655Y71203000D01*
X45392260Y71212626D01*
X45343864Y71222253D01*
X45306098Y71237896D01*
X45252689Y71260019D01*
X45211938Y71287248D01*
X45170631Y71314848D01*
X45100848Y71384631D01*
X45046020Y71466688D01*
X45046019Y71466689D01*
X45008253Y71557865D01*
X44989000Y71654655D01*
X44989000Y71753345D01*
X45008253Y71850135D01*
X45046019Y71941311D01*
X45100847Y72023367D01*
X45100848Y72023369D01*
X45170631Y72093152D01*
X45252688Y72147980D01*
X45252689Y72147981D01*
X45306098Y72170104D01*
X45343864Y72185747D01*
X45392260Y72195373D01*
X45440655Y72205000D01*
X45539345Y72205000D01*
X45587740Y72195373D01*
X45587740Y72195373D01*
G37*
G36*
X6042740Y72195373D02*
G01*
X6091136Y72185747D01*
X6128902Y72170104D01*
X6182311Y72147981D01*
X6182312Y72147980D01*
X6264369Y72093152D01*
X6334152Y72023369D01*
X6334153Y72023367D01*
X6388981Y71941311D01*
X6426747Y71850135D01*
X6446000Y71753345D01*
X6446000Y71654655D01*
X6426747Y71557865D01*
X6388981Y71466689D01*
X6388980Y71466688D01*
X6334152Y71384631D01*
X6264369Y71314848D01*
X6223062Y71287248D01*
X6182311Y71260019D01*
X6128902Y71237896D01*
X6091136Y71222253D01*
X6042740Y71212626D01*
X5994345Y71203000D01*
X5895655Y71203000D01*
X5847260Y71212626D01*
X5798864Y71222253D01*
X5761098Y71237896D01*
X5707689Y71260019D01*
X5666938Y71287248D01*
X5625631Y71314848D01*
X5555848Y71384631D01*
X5501020Y71466688D01*
X5501019Y71466689D01*
X5463253Y71557865D01*
X5444000Y71654655D01*
X5444000Y71753345D01*
X5463253Y71850135D01*
X5501019Y71941311D01*
X5555847Y72023367D01*
X5555848Y72023369D01*
X5625631Y72093152D01*
X5707688Y72147980D01*
X5707689Y72147981D01*
X5761098Y72170104D01*
X5798864Y72185747D01*
X5847260Y72195373D01*
X5895655Y72205000D01*
X5994345Y72205000D01*
X6042740Y72195373D01*
X6042740Y72195373D01*
G37*
G36*
X3042740Y72195373D02*
G01*
X3091136Y72185747D01*
X3128902Y72170104D01*
X3182311Y72147981D01*
X3182312Y72147980D01*
X3264369Y72093152D01*
X3334152Y72023369D01*
X3334153Y72023367D01*
X3388981Y71941311D01*
X3426747Y71850135D01*
X3446000Y71753345D01*
X3446000Y71654655D01*
X3426747Y71557865D01*
X3388981Y71466689D01*
X3388980Y71466688D01*
X3334152Y71384631D01*
X3264369Y71314848D01*
X3223062Y71287248D01*
X3182311Y71260019D01*
X3128902Y71237896D01*
X3091136Y71222253D01*
X3042740Y71212626D01*
X2994345Y71203000D01*
X2895655Y71203000D01*
X2847260Y71212626D01*
X2798864Y71222253D01*
X2761098Y71237896D01*
X2707689Y71260019D01*
X2666938Y71287248D01*
X2625631Y71314848D01*
X2555848Y71384631D01*
X2501020Y71466688D01*
X2501019Y71466689D01*
X2463253Y71557865D01*
X2444000Y71654655D01*
X2444000Y71753345D01*
X2463253Y71850135D01*
X2501019Y71941311D01*
X2555847Y72023367D01*
X2555848Y72023369D01*
X2625631Y72093152D01*
X2707688Y72147980D01*
X2707689Y72147981D01*
X2761098Y72170104D01*
X2798864Y72185747D01*
X2847260Y72195373D01*
X2895655Y72205000D01*
X2994345Y72205000D01*
X3042740Y72195373D01*
X3042740Y72195373D01*
G37*
G36*
X48587740Y72195373D02*
G01*
X48636136Y72185747D01*
X48673902Y72170104D01*
X48727311Y72147981D01*
X48727312Y72147980D01*
X48809369Y72093152D01*
X48879152Y72023369D01*
X48879153Y72023367D01*
X48933981Y71941311D01*
X48971747Y71850135D01*
X48991000Y71753345D01*
X48991000Y71654655D01*
X48971747Y71557865D01*
X48933981Y71466689D01*
X48933980Y71466688D01*
X48879152Y71384631D01*
X48809369Y71314848D01*
X48768062Y71287248D01*
X48727311Y71260019D01*
X48673902Y71237896D01*
X48636136Y71222253D01*
X48587740Y71212626D01*
X48539345Y71203000D01*
X48440655Y71203000D01*
X48392260Y71212626D01*
X48343864Y71222253D01*
X48306098Y71237896D01*
X48252689Y71260019D01*
X48211938Y71287248D01*
X48170631Y71314848D01*
X48100848Y71384631D01*
X48046020Y71466688D01*
X48046019Y71466689D01*
X48008253Y71557865D01*
X47989000Y71654655D01*
X47989000Y71753345D01*
X48008253Y71850135D01*
X48046019Y71941311D01*
X48100847Y72023367D01*
X48100848Y72023369D01*
X48170631Y72093152D01*
X48252688Y72147980D01*
X48252689Y72147981D01*
X48306098Y72170104D01*
X48343864Y72185747D01*
X48392260Y72195373D01*
X48440655Y72205000D01*
X48539345Y72205000D01*
X48587740Y72195373D01*
X48587740Y72195373D01*
G37*
G36*
X51191000Y72353000D02*
G01*
X50089000Y72353000D01*
X50089000Y73255000D01*
X51191000Y73255000D01*
X51191000Y72353000D01*
X51191000Y72353000D01*
G37*
G36*
X43891000Y72353000D02*
G01*
X42789000Y72353000D01*
X42789000Y73255000D01*
X43891000Y73255000D01*
X43891000Y72353000D01*
X43891000Y72353000D01*
G37*
G36*
X1346000Y72353000D02*
G01*
X244000Y72353000D01*
X244000Y73255000D01*
X1346000Y73255000D01*
X1346000Y72353000D01*
X1346000Y72353000D01*
G37*
G36*
X8646000Y72353000D02*
G01*
X7544000Y72353000D01*
X7544000Y73255000D01*
X8646000Y73255000D01*
X8646000Y72353000D01*
X8646000Y72353000D01*
G37*
G36*
X41484500Y74784000D02*
G01*
X37382500Y74784000D01*
X37382500Y78886000D01*
X41484500Y78886000D01*
X41484500Y74784000D01*
X41484500Y74784000D01*
G37*
G36*
X84029500Y74784000D02*
G01*
X79927500Y74784000D01*
X79927500Y78886000D01*
X84029500Y78886000D01*
X84029500Y74784000D01*
X84029500Y74784000D01*
G37*
G36*
X51991528Y76585482D02*
G01*
X52151947Y76536819D01*
X52284611Y76465909D01*
X52299783Y76457799D01*
X52429364Y76351454D01*
X52535709Y76221873D01*
X52535710Y76221871D01*
X52614729Y76074037D01*
X52663392Y75913618D01*
X52679822Y75746795D01*
X52663392Y75579972D01*
X52614729Y75419553D01*
X52543819Y75286889D01*
X52535709Y75271717D01*
X52429364Y75142136D01*
X52299783Y75035791D01*
X52299781Y75035790D01*
X52151947Y74956771D01*
X51991528Y74908108D01*
X51866509Y74895795D01*
X51782901Y74895795D01*
X51657882Y74908108D01*
X51497463Y74956771D01*
X51349629Y75035790D01*
X51349627Y75035791D01*
X51220046Y75142136D01*
X51113701Y75271717D01*
X51105591Y75286889D01*
X51034681Y75419553D01*
X50986018Y75579972D01*
X50969588Y75746795D01*
X50986018Y75913618D01*
X51034681Y76074037D01*
X51113700Y76221871D01*
X51113701Y76221873D01*
X51220046Y76351454D01*
X51349627Y76457799D01*
X51364799Y76465909D01*
X51497463Y76536819D01*
X51657882Y76585482D01*
X51782901Y76597795D01*
X51866509Y76597795D01*
X51991528Y76585482D01*
X51991528Y76585482D01*
G37*
G36*
X9446528Y76585482D02*
G01*
X9606947Y76536819D01*
X9739611Y76465909D01*
X9754783Y76457799D01*
X9884364Y76351454D01*
X9990709Y76221873D01*
X9990710Y76221871D01*
X10069729Y76074037D01*
X10118392Y75913618D01*
X10134822Y75746795D01*
X10118392Y75579972D01*
X10069729Y75419553D01*
X9998819Y75286889D01*
X9990709Y75271717D01*
X9884364Y75142136D01*
X9754783Y75035791D01*
X9754781Y75035790D01*
X9606947Y74956771D01*
X9446528Y74908108D01*
X9321509Y74895795D01*
X9237901Y74895795D01*
X9112882Y74908108D01*
X8952463Y74956771D01*
X8804629Y75035790D01*
X8804627Y75035791D01*
X8675046Y75142136D01*
X8568701Y75271717D01*
X8560591Y75286889D01*
X8489681Y75419553D01*
X8441018Y75579972D01*
X8424588Y75746795D01*
X8441018Y75913618D01*
X8489681Y76074037D01*
X8568700Y76221871D01*
X8568701Y76221873D01*
X8675046Y76351454D01*
X8804627Y76457799D01*
X8819799Y76465909D01*
X8952463Y76536819D01*
X9112882Y76585482D01*
X9237901Y76597795D01*
X9321509Y76597795D01*
X9446528Y76585482D01*
X9446528Y76585482D01*
G37*
G36*
X41484500Y79864000D02*
G01*
X37382500Y79864000D01*
X37382500Y83966000D01*
X41484500Y83966000D01*
X41484500Y79864000D01*
X41484500Y79864000D01*
G37*
G36*
X84029500Y79864000D02*
G01*
X79927500Y79864000D01*
X79927500Y83966000D01*
X84029500Y83966000D01*
X84029500Y79864000D01*
X84029500Y79864000D01*
G37*
G36*
X2343728Y83749297D02*
G01*
X2498600Y83685147D01*
X2637981Y83592015D01*
X2756515Y83473481D01*
X2849647Y83334100D01*
X2913797Y83179228D01*
X2946500Y83014816D01*
X2946500Y82847184D01*
X2913797Y82682772D01*
X2849647Y82527900D01*
X2756515Y82388519D01*
X2637981Y82269985D01*
X2498600Y82176853D01*
X2343728Y82112703D01*
X2179316Y82080000D01*
X2011684Y82080000D01*
X1847272Y82112703D01*
X1692400Y82176853D01*
X1553019Y82269985D01*
X1434485Y82388519D01*
X1341353Y82527900D01*
X1277203Y82682772D01*
X1244500Y82847184D01*
X1244500Y83014816D01*
X1277203Y83179228D01*
X1341353Y83334100D01*
X1434485Y83473481D01*
X1553019Y83592015D01*
X1692400Y83685147D01*
X1847272Y83749297D01*
X2011684Y83782000D01*
X2179316Y83782000D01*
X2343728Y83749297D01*
X2343728Y83749297D01*
G37*
G36*
X44888728Y83749297D02*
G01*
X45043600Y83685147D01*
X45182981Y83592015D01*
X45301515Y83473481D01*
X45394647Y83334100D01*
X45458797Y83179228D01*
X45491500Y83014816D01*
X45491500Y82847184D01*
X45458797Y82682772D01*
X45394647Y82527900D01*
X45301515Y82388519D01*
X45182981Y82269985D01*
X45043600Y82176853D01*
X44888728Y82112703D01*
X44724316Y82080000D01*
X44556684Y82080000D01*
X44392272Y82112703D01*
X44237400Y82176853D01*
X44098019Y82269985D01*
X43979485Y82388519D01*
X43886353Y82527900D01*
X43822203Y82682772D01*
X43789500Y82847184D01*
X43789500Y83014816D01*
X43822203Y83179228D01*
X43886353Y83334100D01*
X43979485Y83473481D01*
X44098019Y83592015D01*
X44237400Y83685147D01*
X44392272Y83749297D01*
X44556684Y83782000D01*
X44724316Y83782000D01*
X44888728Y83749297D01*
X44888728Y83749297D01*
G37*
G36*
X13404085Y87754198D02*
G01*
X13553910Y87724396D01*
X13836174Y87607479D01*
X14090205Y87437741D01*
X14306241Y87221705D01*
X14475979Y86967674D01*
X14592896Y86685410D01*
X14652500Y86385760D01*
X14652500Y86080240D01*
X14592896Y85780590D01*
X14475979Y85498326D01*
X14306241Y85244295D01*
X14090205Y85028259D01*
X13836174Y84858521D01*
X13553910Y84741604D01*
X13404085Y84711802D01*
X13254261Y84682000D01*
X12948739Y84682000D01*
X12798915Y84711802D01*
X12649090Y84741604D01*
X12366826Y84858521D01*
X12112795Y85028259D01*
X11896759Y85244295D01*
X11727021Y85498326D01*
X11610104Y85780590D01*
X11550500Y86080240D01*
X11550500Y86385760D01*
X11610104Y86685410D01*
X11727021Y86967674D01*
X11896759Y87221705D01*
X12112795Y87437741D01*
X12366826Y87607479D01*
X12649090Y87724396D01*
X12798915Y87754198D01*
X12948739Y87784000D01*
X13254261Y87784000D01*
X13404085Y87754198D01*
X13404085Y87754198D01*
G37*
G36*
X55949085Y87754198D02*
G01*
X56098910Y87724396D01*
X56381174Y87607479D01*
X56635205Y87437741D01*
X56851241Y87221705D01*
X57020979Y86967674D01*
X57137896Y86685410D01*
X57197500Y86385760D01*
X57197500Y86080240D01*
X57137896Y85780590D01*
X57020979Y85498326D01*
X56851241Y85244295D01*
X56635205Y85028259D01*
X56381174Y84858521D01*
X56098910Y84741604D01*
X55949085Y84711802D01*
X55799261Y84682000D01*
X55493739Y84682000D01*
X55343915Y84711802D01*
X55194090Y84741604D01*
X54911826Y84858521D01*
X54657795Y85028259D01*
X54441759Y85244295D01*
X54272021Y85498326D01*
X54155104Y85780590D01*
X54095500Y86080240D01*
X54095500Y86385760D01*
X54155104Y86685410D01*
X54272021Y86967674D01*
X54441759Y87221705D01*
X54657795Y87437741D01*
X54911826Y87607479D01*
X55194090Y87724396D01*
X55343915Y87754198D01*
X55493739Y87784000D01*
X55799261Y87784000D01*
X55949085Y87754198D01*
X55949085Y87754198D01*
G37*
G36*
X77687500Y84682000D02*
G01*
X74585500Y84682000D01*
X74585500Y87784000D01*
X77687500Y87784000D01*
X77687500Y84682000D01*
X77687500Y84682000D01*
G37*
G36*
X35142500Y84682000D02*
G01*
X32040500Y84682000D01*
X32040500Y87784000D01*
X35142500Y87784000D01*
X35142500Y84682000D01*
X35142500Y84682000D01*
G37*
G36*
X46734500Y85344000D02*
G01*
X44832500Y85344000D01*
X44832500Y87246000D01*
X46734500Y87246000D01*
X46734500Y85344000D01*
X46734500Y85344000D01*
G37*
G36*
X4189500Y85344000D02*
G01*
X2287500Y85344000D01*
X2287500Y87246000D01*
X4189500Y87246000D01*
X4189500Y85344000D01*
X4189500Y85344000D01*
G37*
G36*
X3515895Y89749454D02*
G01*
X3688966Y89677766D01*
X3688967Y89677765D01*
X3844727Y89573690D01*
X3977190Y89441227D01*
X3977191Y89441225D01*
X4081266Y89285466D01*
X4152954Y89112395D01*
X4189500Y88928667D01*
X4189500Y88741333D01*
X4152954Y88557605D01*
X4081266Y88384534D01*
X4081265Y88384533D01*
X3977190Y88228773D01*
X3844727Y88096310D01*
X3766318Y88043919D01*
X3688966Y87992234D01*
X3515895Y87920546D01*
X3332167Y87884000D01*
X3144833Y87884000D01*
X2961105Y87920546D01*
X2788034Y87992234D01*
X2710682Y88043919D01*
X2632273Y88096310D01*
X2499810Y88228773D01*
X2395735Y88384533D01*
X2395734Y88384534D01*
X2324046Y88557605D01*
X2287500Y88741333D01*
X2287500Y88928667D01*
X2324046Y89112395D01*
X2395734Y89285466D01*
X2499809Y89441225D01*
X2499810Y89441227D01*
X2632273Y89573690D01*
X2788033Y89677765D01*
X2788034Y89677766D01*
X2961105Y89749454D01*
X3144833Y89786000D01*
X3332167Y89786000D01*
X3515895Y89749454D01*
X3515895Y89749454D01*
G37*
G36*
X46060895Y89749454D02*
G01*
X46233966Y89677766D01*
X46233967Y89677765D01*
X46389727Y89573690D01*
X46522190Y89441227D01*
X46522191Y89441225D01*
X46626266Y89285466D01*
X46697954Y89112395D01*
X46734500Y88928667D01*
X46734500Y88741333D01*
X46697954Y88557605D01*
X46626266Y88384534D01*
X46626265Y88384533D01*
X46522190Y88228773D01*
X46389727Y88096310D01*
X46311318Y88043919D01*
X46233966Y87992234D01*
X46060895Y87920546D01*
X45877167Y87884000D01*
X45689833Y87884000D01*
X45506105Y87920546D01*
X45333034Y87992234D01*
X45255682Y88043919D01*
X45177273Y88096310D01*
X45044810Y88228773D01*
X44940735Y88384533D01*
X44940734Y88384534D01*
X44869046Y88557605D01*
X44832500Y88741333D01*
X44832500Y88928667D01*
X44869046Y89112395D01*
X44940734Y89285466D01*
X45044809Y89441225D01*
X45044810Y89441227D01*
X45177273Y89573690D01*
X45333033Y89677765D01*
X45333034Y89677766D01*
X45506105Y89749454D01*
X45689833Y89786000D01*
X45877167Y89786000D01*
X46060895Y89749454D01*
X46060895Y89749454D01*
G37*
G36*
X84029500Y88627000D02*
G01*
X79927500Y88627000D01*
X79927500Y92729000D01*
X84029500Y92729000D01*
X84029500Y88627000D01*
X84029500Y88627000D01*
G37*
G36*
X41484500Y88627000D02*
G01*
X37382500Y88627000D01*
X37382500Y92729000D01*
X41484500Y92729000D01*
X41484500Y88627000D01*
X41484500Y88627000D01*
G37*
G36*
X75296916Y93629666D02*
G01*
X75405492Y93596729D01*
X75405495Y93596728D01*
X75441601Y93577429D01*
X75505557Y93543244D01*
X75593264Y93471264D01*
X75656383Y93394354D01*
X75673702Y93377035D01*
X75694077Y93363421D01*
X75716716Y93354043D01*
X75740749Y93349263D01*
X75765253Y93349263D01*
X75789286Y93354043D01*
X75811925Y93363421D01*
X75832299Y93377034D01*
X75849626Y93394361D01*
X75863240Y93414736D01*
X75872618Y93437375D01*
X75877398Y93461408D01*
X75878000Y93473660D01*
X75878000Y93638000D01*
X77030000Y93638000D01*
X77030000Y92036000D01*
X75878000Y92036000D01*
X75878000Y92200340D01*
X75875598Y92224726D01*
X75868485Y92248175D01*
X75856934Y92269786D01*
X75841389Y92288728D01*
X75822447Y92304273D01*
X75800836Y92315824D01*
X75777387Y92322937D01*
X75753001Y92325339D01*
X75728615Y92322937D01*
X75705166Y92315824D01*
X75683555Y92304273D01*
X75656381Y92279644D01*
X75593264Y92202736D01*
X75505556Y92130756D01*
X75441600Y92096571D01*
X75405494Y92077272D01*
X75405491Y92077271D01*
X75296915Y92044334D01*
X75184000Y92033213D01*
X75071084Y92044334D01*
X74962508Y92077271D01*
X74962505Y92077272D01*
X74926399Y92096571D01*
X74862443Y92130756D01*
X74774736Y92202736D01*
X74702756Y92290444D01*
X74659239Y92371860D01*
X74645625Y92392234D01*
X74628298Y92409561D01*
X74607924Y92423175D01*
X74585285Y92432552D01*
X74561251Y92437332D01*
X74536747Y92437332D01*
X74512714Y92432551D01*
X74490075Y92423174D01*
X74469701Y92409560D01*
X74452374Y92392233D01*
X74438762Y92371860D01*
X74395244Y92290443D01*
X74323264Y92202736D01*
X74235556Y92130756D01*
X74171600Y92096571D01*
X74135494Y92077272D01*
X74135491Y92077271D01*
X74026915Y92044334D01*
X73914000Y92033213D01*
X73801084Y92044334D01*
X73692508Y92077271D01*
X73692505Y92077272D01*
X73656399Y92096571D01*
X73592443Y92130756D01*
X73504736Y92202736D01*
X73432756Y92290444D01*
X73389239Y92371860D01*
X73379272Y92390506D01*
X73373492Y92409560D01*
X73346334Y92499085D01*
X73338000Y92583703D01*
X73338000Y93090298D01*
X73346334Y93174916D01*
X73379271Y93283492D01*
X73379272Y93283495D01*
X73432756Y93383555D01*
X73432757Y93383557D01*
X73504737Y93471264D01*
X73592444Y93543244D01*
X73656400Y93577429D01*
X73692506Y93596728D01*
X73692509Y93596729D01*
X73801085Y93629666D01*
X73914000Y93640787D01*
X74026916Y93629666D01*
X74135492Y93596729D01*
X74135495Y93596728D01*
X74171601Y93577429D01*
X74235557Y93543244D01*
X74323264Y93471264D01*
X74395244Y93383557D01*
X74411019Y93354043D01*
X74438761Y93302141D01*
X74452375Y93281766D01*
X74469702Y93264439D01*
X74490076Y93250826D01*
X74512715Y93241448D01*
X74536748Y93236668D01*
X74561252Y93236668D01*
X74585285Y93241448D01*
X74607924Y93250826D01*
X74628299Y93264440D01*
X74645626Y93281767D01*
X74659239Y93302141D01*
X74702756Y93383555D01*
X74702757Y93383557D01*
X74774737Y93471264D01*
X74862444Y93543244D01*
X74926400Y93577429D01*
X74962506Y93596728D01*
X74962509Y93596729D01*
X75071085Y93629666D01*
X75184000Y93640787D01*
X75296916Y93629666D01*
X75296916Y93629666D01*
G37*
G36*
X32751916Y93629666D02*
G01*
X32860492Y93596729D01*
X32860495Y93596728D01*
X32896601Y93577429D01*
X32960557Y93543244D01*
X33048264Y93471264D01*
X33111383Y93394354D01*
X33128702Y93377035D01*
X33149077Y93363421D01*
X33171716Y93354043D01*
X33195749Y93349263D01*
X33220253Y93349263D01*
X33244286Y93354043D01*
X33266925Y93363421D01*
X33287299Y93377034D01*
X33304626Y93394361D01*
X33318240Y93414736D01*
X33327618Y93437375D01*
X33332398Y93461408D01*
X33333000Y93473660D01*
X33333000Y93638000D01*
X34485000Y93638000D01*
X34485000Y92036000D01*
X33333000Y92036000D01*
X33333000Y92200340D01*
X33330598Y92224726D01*
X33323485Y92248175D01*
X33311934Y92269786D01*
X33296389Y92288728D01*
X33277447Y92304273D01*
X33255836Y92315824D01*
X33232387Y92322937D01*
X33208001Y92325339D01*
X33183615Y92322937D01*
X33160166Y92315824D01*
X33138555Y92304273D01*
X33111381Y92279644D01*
X33048264Y92202736D01*
X32960556Y92130756D01*
X32896600Y92096571D01*
X32860494Y92077272D01*
X32860491Y92077271D01*
X32751915Y92044334D01*
X32639000Y92033213D01*
X32526084Y92044334D01*
X32417508Y92077271D01*
X32417505Y92077272D01*
X32381399Y92096571D01*
X32317443Y92130756D01*
X32229736Y92202736D01*
X32157756Y92290444D01*
X32114239Y92371860D01*
X32100625Y92392234D01*
X32083298Y92409561D01*
X32062924Y92423175D01*
X32040285Y92432552D01*
X32016251Y92437332D01*
X31991747Y92437332D01*
X31967714Y92432551D01*
X31945075Y92423174D01*
X31924701Y92409560D01*
X31907374Y92392233D01*
X31893762Y92371860D01*
X31850244Y92290443D01*
X31778264Y92202736D01*
X31690556Y92130756D01*
X31626600Y92096571D01*
X31590494Y92077272D01*
X31590491Y92077271D01*
X31481915Y92044334D01*
X31369000Y92033213D01*
X31256084Y92044334D01*
X31147508Y92077271D01*
X31147505Y92077272D01*
X31111399Y92096571D01*
X31047443Y92130756D01*
X30959736Y92202736D01*
X30887756Y92290444D01*
X30844239Y92371860D01*
X30834272Y92390506D01*
X30828492Y92409560D01*
X30801334Y92499085D01*
X30793000Y92583703D01*
X30793000Y93090298D01*
X30801334Y93174916D01*
X30834271Y93283492D01*
X30834272Y93283495D01*
X30887756Y93383555D01*
X30887757Y93383557D01*
X30959737Y93471264D01*
X31047444Y93543244D01*
X31111400Y93577429D01*
X31147506Y93596728D01*
X31147509Y93596729D01*
X31256085Y93629666D01*
X31369000Y93640787D01*
X31481916Y93629666D01*
X31590492Y93596729D01*
X31590495Y93596728D01*
X31626601Y93577429D01*
X31690557Y93543244D01*
X31778264Y93471264D01*
X31850244Y93383557D01*
X31866019Y93354043D01*
X31893761Y93302141D01*
X31907375Y93281766D01*
X31924702Y93264439D01*
X31945076Y93250826D01*
X31967715Y93241448D01*
X31991748Y93236668D01*
X32016252Y93236668D01*
X32040285Y93241448D01*
X32062924Y93250826D01*
X32083299Y93264440D01*
X32100626Y93281767D01*
X32114239Y93302141D01*
X32157756Y93383555D01*
X32157757Y93383557D01*
X32229737Y93471264D01*
X32317444Y93543244D01*
X32381400Y93577429D01*
X32417506Y93596728D01*
X32417509Y93596729D01*
X32526085Y93629666D01*
X32639000Y93640787D01*
X32751916Y93629666D01*
X32751916Y93629666D01*
G37*
G36*
X41484500Y93707000D02*
G01*
X37382500Y93707000D01*
X37382500Y97809000D01*
X41484500Y97809000D01*
X41484500Y93707000D01*
X41484500Y93707000D01*
G37*
G36*
X84029500Y93707000D02*
G01*
X79927500Y93707000D01*
X79927500Y97809000D01*
X84029500Y97809000D01*
X84029500Y93707000D01*
X84029500Y93707000D01*
G37*
G36*
X7096000Y93908000D02*
G01*
X6294000Y93908000D01*
X6294000Y95510000D01*
X7096000Y95510000D01*
X7096000Y93908000D01*
X7096000Y93908000D01*
G37*
G36*
X49641000Y93908000D02*
G01*
X48839000Y93908000D01*
X48839000Y95510000D01*
X49641000Y95510000D01*
X49641000Y93908000D01*
X49641000Y93908000D01*
G37*
G36*
X45141000Y93908000D02*
G01*
X44339000Y93908000D01*
X44339000Y95510000D01*
X45141000Y95510000D01*
X45141000Y93908000D01*
X45141000Y93908000D01*
G37*
G36*
X46641000Y93908000D02*
G01*
X45839000Y93908000D01*
X45839000Y95510000D01*
X46641000Y95510000D01*
X46641000Y93908000D01*
X46641000Y93908000D01*
G37*
G36*
X2596000Y93908000D02*
G01*
X1794000Y93908000D01*
X1794000Y95510000D01*
X2596000Y95510000D01*
X2596000Y93908000D01*
X2596000Y93908000D01*
G37*
G36*
X4096000Y93908000D02*
G01*
X3294000Y93908000D01*
X3294000Y95510000D01*
X4096000Y95510000D01*
X4096000Y93908000D01*
X4096000Y93908000D01*
G37*
G36*
X8646000Y94908000D02*
G01*
X7544000Y94908000D01*
X7544000Y95810000D01*
X8646000Y95810000D01*
X8646000Y94908000D01*
X8646000Y94908000D01*
G37*
G36*
X51191000Y94908000D02*
G01*
X50089000Y94908000D01*
X50089000Y95810000D01*
X51191000Y95810000D01*
X51191000Y94908000D01*
X51191000Y94908000D01*
G37*
G36*
X43891000Y94908000D02*
G01*
X42789000Y94908000D01*
X42789000Y95810000D01*
X43891000Y95810000D01*
X43891000Y94908000D01*
X43891000Y94908000D01*
G37*
G36*
X1346000Y94908000D02*
G01*
X244000Y94908000D01*
X244000Y95810000D01*
X1346000Y95810000D01*
X1346000Y94908000D01*
X1346000Y94908000D01*
G37*
G36*
X48587740Y96960373D02*
G01*
X48636136Y96950747D01*
X48673902Y96935104D01*
X48727311Y96912981D01*
X48727312Y96912980D01*
X48809369Y96858152D01*
X48879152Y96788369D01*
X48879153Y96788367D01*
X48933981Y96706311D01*
X48971747Y96615135D01*
X48991000Y96518345D01*
X48991000Y96419655D01*
X48971747Y96322865D01*
X48933981Y96231689D01*
X48933980Y96231688D01*
X48879152Y96149631D01*
X48809369Y96079848D01*
X48768062Y96052248D01*
X48727311Y96025019D01*
X48673902Y96002896D01*
X48636136Y95987253D01*
X48587740Y95977627D01*
X48539345Y95968000D01*
X48440655Y95968000D01*
X48392260Y95977627D01*
X48343864Y95987253D01*
X48306098Y96002896D01*
X48252689Y96025019D01*
X48211938Y96052248D01*
X48170631Y96079848D01*
X48100848Y96149631D01*
X48046020Y96231688D01*
X48046019Y96231689D01*
X48008253Y96322865D01*
X47989000Y96419655D01*
X47989000Y96518345D01*
X48008253Y96615135D01*
X48046019Y96706311D01*
X48100847Y96788367D01*
X48100848Y96788369D01*
X48170631Y96858152D01*
X48252688Y96912980D01*
X48252689Y96912981D01*
X48306098Y96935104D01*
X48343864Y96950747D01*
X48392260Y96960373D01*
X48440655Y96970000D01*
X48539345Y96970000D01*
X48587740Y96960373D01*
X48587740Y96960373D01*
G37*
G36*
X3042740Y96960373D02*
G01*
X3091136Y96950747D01*
X3128902Y96935104D01*
X3182311Y96912981D01*
X3182312Y96912980D01*
X3264369Y96858152D01*
X3334152Y96788369D01*
X3334153Y96788367D01*
X3388981Y96706311D01*
X3426747Y96615135D01*
X3446000Y96518345D01*
X3446000Y96419655D01*
X3426747Y96322865D01*
X3388981Y96231689D01*
X3388980Y96231688D01*
X3334152Y96149631D01*
X3264369Y96079848D01*
X3223062Y96052248D01*
X3182311Y96025019D01*
X3128902Y96002896D01*
X3091136Y95987253D01*
X3042740Y95977627D01*
X2994345Y95968000D01*
X2895655Y95968000D01*
X2847260Y95977627D01*
X2798864Y95987253D01*
X2761098Y96002896D01*
X2707689Y96025019D01*
X2666938Y96052248D01*
X2625631Y96079848D01*
X2555848Y96149631D01*
X2501020Y96231688D01*
X2501019Y96231689D01*
X2463253Y96322865D01*
X2444000Y96419655D01*
X2444000Y96518345D01*
X2463253Y96615135D01*
X2501019Y96706311D01*
X2555847Y96788367D01*
X2555848Y96788369D01*
X2625631Y96858152D01*
X2707688Y96912980D01*
X2707689Y96912981D01*
X2761098Y96935104D01*
X2798864Y96950747D01*
X2847260Y96960373D01*
X2895655Y96970000D01*
X2994345Y96970000D01*
X3042740Y96960373D01*
X3042740Y96960373D01*
G37*
G36*
X6042740Y96960373D02*
G01*
X6091136Y96950747D01*
X6128902Y96935104D01*
X6182311Y96912981D01*
X6182312Y96912980D01*
X6264369Y96858152D01*
X6334152Y96788369D01*
X6334153Y96788367D01*
X6388981Y96706311D01*
X6426747Y96615135D01*
X6446000Y96518345D01*
X6446000Y96419655D01*
X6426747Y96322865D01*
X6388981Y96231689D01*
X6388980Y96231688D01*
X6334152Y96149631D01*
X6264369Y96079848D01*
X6223062Y96052248D01*
X6182311Y96025019D01*
X6128902Y96002896D01*
X6091136Y95987253D01*
X6042740Y95977627D01*
X5994345Y95968000D01*
X5895655Y95968000D01*
X5847260Y95977627D01*
X5798864Y95987253D01*
X5761098Y96002896D01*
X5707689Y96025019D01*
X5666938Y96052248D01*
X5625631Y96079848D01*
X5555848Y96149631D01*
X5501020Y96231688D01*
X5501019Y96231689D01*
X5463253Y96322865D01*
X5444000Y96419655D01*
X5444000Y96518345D01*
X5463253Y96615135D01*
X5501019Y96706311D01*
X5555847Y96788367D01*
X5555848Y96788369D01*
X5625631Y96858152D01*
X5707688Y96912980D01*
X5707689Y96912981D01*
X5761098Y96935104D01*
X5798864Y96950747D01*
X5847260Y96960373D01*
X5895655Y96970000D01*
X5994345Y96970000D01*
X6042740Y96960373D01*
X6042740Y96960373D01*
G37*
G36*
X45587740Y96960373D02*
G01*
X45636136Y96950747D01*
X45673902Y96935104D01*
X45727311Y96912981D01*
X45727312Y96912980D01*
X45809369Y96858152D01*
X45879152Y96788369D01*
X45879153Y96788367D01*
X45933981Y96706311D01*
X45971747Y96615135D01*
X45991000Y96518345D01*
X45991000Y96419655D01*
X45971747Y96322865D01*
X45933981Y96231689D01*
X45933980Y96231688D01*
X45879152Y96149631D01*
X45809369Y96079848D01*
X45768062Y96052248D01*
X45727311Y96025019D01*
X45673902Y96002896D01*
X45636136Y95987253D01*
X45587740Y95977627D01*
X45539345Y95968000D01*
X45440655Y95968000D01*
X45392260Y95977627D01*
X45343864Y95987253D01*
X45306098Y96002896D01*
X45252689Y96025019D01*
X45211938Y96052248D01*
X45170631Y96079848D01*
X45100848Y96149631D01*
X45046020Y96231688D01*
X45046019Y96231689D01*
X45008253Y96322865D01*
X44989000Y96419655D01*
X44989000Y96518345D01*
X45008253Y96615135D01*
X45046019Y96706311D01*
X45100847Y96788367D01*
X45100848Y96788369D01*
X45170631Y96858152D01*
X45252688Y96912980D01*
X45252689Y96912981D01*
X45306098Y96935104D01*
X45343864Y96950747D01*
X45392260Y96960373D01*
X45440655Y96970000D01*
X45539345Y96970000D01*
X45587740Y96960373D01*
X45587740Y96960373D01*
G37*
G36*
X43891000Y97118000D02*
G01*
X42789000Y97118000D01*
X42789000Y98020000D01*
X43891000Y98020000D01*
X43891000Y97118000D01*
X43891000Y97118000D01*
G37*
G36*
X51191000Y97118000D02*
G01*
X50089000Y97118000D01*
X50089000Y98020000D01*
X51191000Y98020000D01*
X51191000Y97118000D01*
X51191000Y97118000D01*
G37*
G36*
X1346000Y97118000D02*
G01*
X244000Y97118000D01*
X244000Y98020000D01*
X1346000Y98020000D01*
X1346000Y97118000D01*
X1346000Y97118000D01*
G37*
G36*
X8646000Y97118000D02*
G01*
X7544000Y97118000D01*
X7544000Y98020000D01*
X8646000Y98020000D01*
X8646000Y97118000D01*
X8646000Y97118000D01*
G37*
M02*
