M48
; DRILL file {KiCad (5.1.4)-1} date 02/09/21 18:46:45
; FORMAT={-:-/ absolute / inch / decimal}
; #@! TF.CreationDate,2021-02-09T18:46:45+01:00
; #@! TF.GenerationSoftware,Kicad,Pcbnew,(5.1.4)-1
; #@! TF.FileFunction,Plated,1,2,PTH
FMAT,2
INCH
T1C0.0118
T2C0.0295
T3C0.0315
T4C0.0354
T5C0.0591
T6C0.0787
%
G90
G05
T1
X0.05Y3.4425
X0.05Y2.4675
X0.05Y1.4925
X0.05Y0.5175
X0.055Y3.11
X0.055Y2.135
X0.055Y1.16
X0.055Y0.185
X0.07Y3.6175
X0.07Y2.6425
X0.07Y1.6675
X0.07Y0.6925
X0.0875Y2.9925
X0.0875Y2.0175
X0.0875Y1.0425
X0.0875Y0.0675
X0.2525Y3.61
X0.2525Y2.635
X0.2525Y1.66
X0.2525Y0.685
X0.2625Y3.2175
X0.2625Y2.2425
X0.2625Y1.2675
X0.2625Y0.2925
X0.41Y3.27
X0.41Y2.295
X0.41Y1.32
X0.41Y0.345
X0.4275Y3.8225
X0.4275Y2.8475
X0.4275Y1.8725
X0.4275Y0.8975
X0.55Y3.69
X0.55Y2.715
X0.55Y1.74
X0.55Y0.765
X0.6125Y3.075
X0.6125Y2.1
X0.6125Y1.125
X0.6125Y0.15
X1.075Y3.82
X1.075Y2.845
X1.075Y1.87
X1.075Y0.895
X1.1275Y3.715
X1.1275Y2.74
X1.1275Y1.765
X1.1275Y0.79
X1.1675Y2.985
X1.1675Y2.01
X1.1675Y1.035
X1.1675Y0.06
X1.2925Y3.1175
X1.2925Y2.1425
X1.2925Y1.1675
X1.2925Y0.1925
X1.3325Y3.8225
X1.3325Y2.8475
X1.3325Y1.8725
X1.3325Y0.8975
X1.42Y3.6625
X1.42Y2.6875
X1.42Y1.7125
X1.42Y0.7375
X1.4525Y3.4
X1.4525Y2.425
X1.4525Y1.45
X1.4525Y0.475
X1.5725Y3.37
X1.5725Y2.395
X1.5725Y1.42
X1.5725Y0.445
X1.725Y3.4425
X1.725Y2.4675
X1.725Y1.4925
X1.725Y0.5175
X1.73Y3.11
X1.73Y2.135
X1.73Y1.16
X1.73Y0.185
X1.745Y3.6175
X1.745Y2.6425
X1.745Y1.6675
X1.745Y0.6925
X1.7625Y2.9925
X1.7625Y2.0175
X1.7625Y1.0425
X1.7625Y0.0675
X1.9275Y3.61
X1.9275Y2.635
X1.9275Y1.66
X1.9275Y0.685
X1.9375Y3.2175
X1.9375Y2.2425
X1.9375Y1.2675
X1.9375Y0.2925
X2.085Y3.27
X2.085Y2.295
X2.085Y1.32
X2.085Y0.345
X2.1025Y3.8225
X2.1025Y2.8475
X2.1025Y1.8725
X2.1025Y0.8975
X2.225Y3.69
X2.225Y2.715
X2.225Y1.74
X2.225Y0.765
X2.2875Y3.075
X2.2875Y2.1
X2.2875Y1.125
X2.2875Y0.15
X2.75Y3.82
X2.75Y2.845
X2.75Y1.87
X2.75Y0.895
X2.8025Y3.715
X2.8025Y2.74
X2.8025Y1.765
X2.8025Y0.79
X2.8425Y2.985
X2.8425Y2.01
X2.8425Y1.035
X2.8425Y0.06
X2.9675Y3.1175
X2.9675Y2.1425
X2.9675Y1.1675
X2.9675Y0.1925
X3.0075Y3.8225
X3.0075Y2.8475
X3.0075Y1.8725
X3.0075Y0.8975
X3.095Y3.6625
X3.095Y2.6875
X3.095Y1.7125
X3.095Y0.7375
X3.1275Y3.4
X3.1275Y2.425
X3.1275Y1.45
X3.1275Y0.475
X3.2475Y3.37
X3.2475Y2.395
X3.2475Y1.42
X3.2475Y0.445
T2
X1.235Y1.705
X1.285Y1.705
X1.335Y1.705
X2.91Y2.68
X2.96Y2.68
X3.01Y2.68
X2.91Y1.705
X2.96Y1.705
X3.01Y1.705
X1.235Y2.68
X1.285Y2.68
X1.335Y2.68
X1.235Y3.655
X1.285Y3.655
X1.335Y3.655
X2.91Y0.73
X2.96Y0.73
X3.01Y0.73
X1.235Y0.73
X1.285Y0.73
X1.335Y0.73
X2.91Y3.655
X2.96Y3.655
X3.01Y3.655
T3
X0.0825Y3.265
X0.3653Y2.9822
X0.0825Y1.315
X0.3653Y1.0322
X0.0825Y2.29
X0.3653Y2.0072
X1.7575Y2.29
X2.0403Y2.0072
X1.7575Y1.315
X2.0403Y1.0322
X1.7575Y0.34
X2.0403Y0.0572
X0.0825Y0.34
X0.3653Y0.0572
X1.7575Y3.265
X2.0403Y2.9822
T4
X1.8025Y3.4974
X1.8025Y3.3974
X0.1275Y3.4974
X0.1275Y3.3974
X1.8025Y0.5724
X1.8025Y0.4724
X0.1275Y1.5474
X0.1275Y1.4474
X0.1275Y0.5724
X0.1275Y0.4724
X1.8025Y2.5224
X1.8025Y2.4224
X0.1275Y2.5224
X0.1275Y2.4224
X1.8025Y1.5474
X1.8025Y1.4474
T5
X2.1908Y2.42
X2.9975Y2.42
X0.5158Y1.445
X1.3225Y1.445
X2.1908Y3.395
X2.9975Y3.395
X0.5158Y0.47
X1.3225Y0.47
X2.1908Y0.47
X2.9975Y0.47
X2.1908Y1.445
X2.9975Y1.445
X0.5158Y3.395
X1.3225Y3.395
X0.5158Y2.42
X1.3225Y2.42
T6
X1.5525Y1.82
X1.5525Y2.25
X3.2275Y1.275
X1.5525Y2.05
X3.2275Y2.25
X1.5525Y0.1
X1.5525Y2.795
X3.2275Y2.05
X1.5525Y0.645
X3.2275Y0.845
X3.2275Y0.3
X3.2275Y1.075
X1.5525Y1.275
X3.2275Y2.595
X3.2275Y3.025
X1.5525Y3.57
X1.5525Y2.595
X3.2275Y1.82
X3.2275Y2.795
X1.5525Y0.3
X1.5525Y3.025
X1.5525Y1.075
X1.5525Y1.62
X3.2275Y0.1
X3.2275Y3.225
X3.2275Y0.645
X1.5525Y3.77
X3.2275Y3.77
X3.2275Y1.62
X1.5525Y0.845
X3.2275Y3.57
X1.5525Y3.225
T0
M30
